<svg fill="#000000" xmlns="http://www.w3.org/2000/svg"  viewBox="0 0 80 80" width="80px" height="80px"><path d="M 12 15 C 9.25 15 7 17.25 7 20 L 7 53.417969 C 5.894531 53.859375 5 54.742188 5 56 L 5 67 L 13 67 L 13 63 L 67 63 L 67 67 L 75 67 L 75 56 C 75 54.742188 74.105469 53.859375 73 53.417969 L 73 20 C 73 17.25 70.75 15 68 15 Z M 12 17 L 68 17 C 69.667969 17 71 18.332031 71 20 L 71 46.285156 C 69.589844 43.746094 67.511719 41.621094 65 40.164063 L 65 30.28125 L 64.316406 30.050781 C 64.316406 30.050781 58.222656 28 52 28 C 46.246094 28 40.816406 29.691406 40 29.953125 C 39.183594 29.691406 33.753906 28 28 28 C 21.777344 28 15.683594 30.050781 15.683594 30.050781 L 15 30.28125 L 15 40.164063 C 12.488281 41.621094 10.410156 43.746094 9 46.285156 L 9 20 C 9 18.332031 10.332031 17 12 17 Z M 12 19 C 11.449219 19 11 19.449219 11 20 C 11 20.550781 11.449219 21 12 21 C 12.550781 21 13 20.550781 13 20 C 13 19.449219 12.550781 19 12 19 Z M 16 19 C 15.449219 19 15 19.449219 15 20 C 15 20.550781 15.449219 21 16 21 C 16.550781 21 17 20.550781 17 20 C 17 19.449219 16.550781 19 16 19 Z M 20 19 C 19.449219 19 19 19.449219 19 20 C 19 20.550781 19.449219 21 20 21 C 20.550781 21 21 20.550781 21 20 C 21 19.449219 20.550781 19 20 19 Z M 24 19 C 23.449219 19 23 19.449219 23 20 C 23 20.550781 23.449219 21 24 21 C 24.550781 21 25 20.550781 25 20 C 25 19.449219 24.550781 19 24 19 Z M 28 19 C 27.449219 19 27 19.449219 27 20 C 27 20.550781 27.449219 21 28 21 C 28.550781 21 29 20.550781 29 20 C 29 19.449219 28.550781 19 28 19 Z M 32 19 C 31.449219 19 31 19.449219 31 20 C 31 20.550781 31.449219 21 32 21 C 32.550781 21 33 20.550781 33 20 C 33 19.449219 32.550781 19 32 19 Z M 36 19 C 35.449219 19 35 19.449219 35 20 C 35 20.550781 35.449219 21 36 21 C 36.550781 21 37 20.550781 37 20 C 37 19.449219 36.550781 19 36 19 Z M 40 19 C 39.449219 19 39 19.449219 39 20 C 39 20.550781 39.449219 21 40 21 C 40.550781 21 41 20.550781 41 20 C 41 19.449219 40.550781 19 40 19 Z M 44 19 C 43.449219 19 43 19.449219 43 20 C 43 20.550781 43.449219 21 44 21 C 44.550781 21 45 20.550781 45 20 C 45 19.449219 44.550781 19 44 19 Z M 48 19 C 47.449219 19 47 19.449219 47 20 C 47 20.550781 47.449219 21 48 21 C 48.550781 21 49 20.550781 49 20 C 49 19.449219 48.550781 19 48 19 Z M 52 19 C 51.449219 19 51 19.449219 51 20 C 51 20.550781 51.449219 21 52 21 C 52.550781 21 53 20.550781 53 20 C 53 19.449219 52.550781 19 52 19 Z M 56 19 C 55.449219 19 55 19.449219 55 20 C 55 20.550781 55.449219 21 56 21 C 56.550781 21 57 20.550781 57 20 C 57 19.449219 56.550781 19 56 19 Z M 60 19 C 59.449219 19 59 19.449219 59 20 C 59 20.550781 59.449219 21 60 21 C 60.550781 21 61 20.550781 61 20 C 61 19.449219 60.550781 19 60 19 Z M 64 19 C 63.449219 19 63 19.449219 63 20 C 63 20.550781 63.449219 21 64 21 C 64.550781 21 65 20.550781 65 20 C 65 19.449219 64.550781 19 64 19 Z M 68 19 C 67.449219 19 67 19.449219 67 20 C 67 20.550781 67.449219 21 68 21 C 68.550781 21 69 20.550781 69 20 C 69 19.449219 68.550781 19 68 19 Z M 28 30 C 33.242188 30 38.050781 31.46875 39 31.765625 L 39 38 L 23 38 C 20.878906 38 18.855469 38.425781 17 39.175781 L 17 31.765625 C 17.949219 31.46875 22.757813 30 28 30 Z M 52 30 C 57.242188 30 62.050781 31.46875 63 31.765625 L 63 39.175781 C 61.144531 38.425781 59.121094 38 57 38 L 41 38 L 41 31.765625 C 41.949219 31.46875 46.757813 30 52 30 Z M 23 40 L 57 40 C 64.742188 40 71 46.257813 71 54 L 71 55 L 72 55 C 72.566406 55 73 55.433594 73 56 L 73 65 L 69 65 L 69 61 L 11 61 L 11 65 L 7 65 L 7 56 C 7 55.433594 7.433594 55 8 55 L 9 55 L 9 54 C 9 46.257813 15.257813 40 23 40 Z M 12 53 C 11.449219 53 11 53.449219 11 54 C 11 54.550781 11.449219 55 12 55 C 12.550781 55 13 54.550781 13 54 C 13 53.449219 12.550781 53 12 53 Z M 16 53 C 15.449219 53 15 53.449219 15 54 C 15 54.550781 15.449219 55 16 55 C 16.550781 55 17 54.550781 17 54 C 17 53.449219 16.550781 53 16 53 Z M 20 53 C 19.449219 53 19 53.449219 19 54 C 19 54.550781 19.449219 55 20 55 C 20.550781 55 21 54.550781 21 54 C 21 53.449219 20.550781 53 20 53 Z M 24 53 C 23.449219 53 23 53.449219 23 54 C 23 54.550781 23.449219 55 24 55 C 24.550781 55 25 54.550781 25 54 C 25 53.449219 24.550781 53 24 53 Z M 28 53 C 27.449219 53 27 53.449219 27 54 C 27 54.550781 27.449219 55 28 55 C 28.550781 55 29 54.550781 29 54 C 29 53.449219 28.550781 53 28 53 Z M 32 53 C 31.449219 53 31 53.449219 31 54 C 31 54.550781 31.449219 55 32 55 C 32.550781 55 33 54.550781 33 54 C 33 53.449219 32.550781 53 32 53 Z M 36 53 C 35.449219 53 35 53.449219 35 54 C 35 54.550781 35.449219 55 36 55 C 36.550781 55 37 54.550781 37 54 C 37 53.449219 36.550781 53 36 53 Z M 40 53 C 39.449219 53 39 53.449219 39 54 C 39 54.550781 39.449219 55 40 55 C 40.550781 55 41 54.550781 41 54 C 41 53.449219 40.550781 53 40 53 Z M 44 53 C 43.449219 53 43 53.449219 43 54 C 43 54.550781 43.449219 55 44 55 C 44.550781 55 45 54.550781 45 54 C 45 53.449219 44.550781 53 44 53 Z M 48 53 C 47.449219 53 47 53.449219 47 54 C 47 54.550781 47.449219 55 48 55 C 48.550781 55 49 54.550781 49 54 C 49 53.449219 48.550781 53 48 53 Z M 52 53 C 51.449219 53 51 53.449219 51 54 C 51 54.550781 51.449219 55 52 55 C 52.550781 55 53 54.550781 53 54 C 53 53.449219 52.550781 53 52 53 Z M 56 53 C 55.449219 53 55 53.449219 55 54 C 55 54.550781 55.449219 55 56 55 C 56.550781 55 57 54.550781 57 54 C 57 53.449219 56.550781 53 56 53 Z M 60 53 C 59.449219 53 59 53.449219 59 54 C 59 54.550781 59.449219 55 60 55 C 60.550781 55 61 54.550781 61 54 C 61 53.449219 60.550781 53 60 53 Z M 64 53 C 63.449219 53 63 53.449219 63 54 C 63 54.550781 63.449219 55 64 55 C 64.550781 55 65 54.550781 65 54 C 65 53.449219 64.550781 53 64 53 Z M 68 53 C 67.449219 53 67 53.449219 67 54 C 67 54.550781 67.449219 55 68 55 C 68.550781 55 69 54.550781 69 54 C 69 53.449219 68.550781 53 68 53 Z"/></svg>