<svg fill="#000000" xmlns="http://www.w3.org/2000/svg"  viewBox="0 0 80 80" width="80px" height="80px"><path d="M 19 9 C 16.802666 9 15 10.802666 15 13 L 15 15 L 12 15 C 9.8026661 15 8 16.802666 8 19 L 8 57 C 8 59.197334 9.8026661 61 12 61 L 17.466797 61 C 17.019734 63.961162 16.490662 65.883989 16.029297 67.134766 C 15.50247 68.563013 15 69.539918 15 71 L 15 72 L 16 72 C 20.02381 72 23.64602 69.021692 26.347656 66.191406 C 28.694934 63.732353 30.123956 61.601395 30.519531 61 L 62 61 C 64.197334 61 66 59.197334 66 57 L 66 54 L 68 54 C 70.197334 54 72 52.197334 72 50 L 72 13 C 72 10.802666 70.197334 9 68 9 L 19 9 z M 19 11 L 68 11 C 69.116666 11 70 11.883334 70 13 L 70 50 C 70 51.116666 69.116666 52 68 52 L 66 52 L 66 19 C 66 16.802666 64.197334 15 62 15 L 17 15 L 17 13 C 17 11.883334 17.883334 11 19 11 z M 12 17 L 62 17 C 63.116666 17 64 17.883334 64 19 L 64 57 C 64 58.116666 63.116666 59 62 59 L 29.451172 59 L 29.15625 59.462891 C 29.15625 59.462891 27.450707 62.13888 24.902344 64.808594 C 22.732278 67.081996 19.97204 69.149393 17.359375 69.742188 C 17.512019 69.189848 17.565996 68.74527 17.904297 67.828125 C 18.46497 66.308122 19.159035 64.062542 19.650391 60.123047 L 19.791016 59 L 12 59 C 10.883334 59 10 58.116666 10 57 L 10 19 C 10 18.860417 10.014681 18.724772 10.041016 18.59375 C 10.225358 17.676595 11.022917 17 12 17 z M 15 21 A 1 1 0 0 0 14 22 A 1 1 0 0 0 15 23 A 1 1 0 0 0 16 22 A 1 1 0 0 0 15 21 z M 19 21 A 1 1 0 0 0 18 22 A 1 1 0 0 0 19 23 A 1 1 0 0 0 20 22 A 1 1 0 0 0 19 21 z M 23 21 A 1 1 0 0 0 22 22 A 1 1 0 0 0 23 23 A 1 1 0 0 0 24 22 A 1 1 0 0 0 23 21 z M 27 21 A 1 1 0 0 0 26 22 A 1 1 0 0 0 27 23 A 1 1 0 0 0 28 22 A 1 1 0 0 0 27 21 z M 31 21 A 1 1 0 0 0 30 22 A 1 1 0 0 0 31 23 A 1 1 0 0 0 32 22 A 1 1 0 0 0 31 21 z M 35 21 A 1 1 0 0 0 34 22 A 1 1 0 0 0 35 23 A 1 1 0 0 0 36 22 A 1 1 0 0 0 35 21 z M 39 21 A 1 1 0 0 0 38 22 A 1 1 0 0 0 39 23 A 1 1 0 0 0 40 22 A 1 1 0 0 0 39 21 z M 43 21 A 1 1 0 0 0 42 22 A 1 1 0 0 0 43 23 A 1 1 0 0 0 44 22 A 1 1 0 0 0 43 21 z M 47 21 A 1 1 0 0 0 46 22 A 1 1 0 0 0 47 23 A 1 1 0 0 0 48 22 A 1 1 0 0 0 47 21 z M 51 21 A 1 1 0 0 0 50 22 A 1 1 0 0 0 51 23 A 1 1 0 0 0 52 22 A 1 1 0 0 0 51 21 z M 55 21 A 1 1 0 0 0 54 22 A 1 1 0 0 0 55 23 A 1 1 0 0 0 56 22 A 1 1 0 0 0 55 21 z M 59 21 A 1 1 0 0 0 58 22 A 1 1 0 0 0 59 23 A 1 1 0 0 0 60 22 A 1 1 0 0 0 59 21 z M 15 25 A 1 1 0 0 0 14 26 A 1 1 0 0 0 15 27 A 1 1 0 0 0 16 26 A 1 1 0 0 0 15 25 z M 59 25 A 1 1 0 0 0 58 26 A 1 1 0 0 0 59 27 A 1 1 0 0 0 60 26 A 1 1 0 0 0 59 25 z M 15 29 A 1 1 0 0 0 14 30 A 1 1 0 0 0 15 31 A 1 1 0 0 0 16 30 A 1 1 0 0 0 15 29 z M 59 29 A 1 1 0 0 0 58 30 A 1 1 0 0 0 59 31 A 1 1 0 0 0 60 30 A 1 1 0 0 0 59 29 z M 15 33 A 1 1 0 0 0 14 34 A 1 1 0 0 0 15 35 A 1 1 0 0 0 16 34 A 1 1 0 0 0 15 33 z M 59 33 A 1 1 0 0 0 58 34 A 1 1 0 0 0 59 35 A 1 1 0 0 0 60 34 A 1 1 0 0 0 59 33 z M 15 37 A 1 1 0 0 0 14 38 A 1 1 0 0 0 15 39 A 1 1 0 0 0 16 38 A 1 1 0 0 0 15 37 z M 59 37 A 1 1 0 0 0 58 38 A 1 1 0 0 0 59 39 A 1 1 0 0 0 60 38 A 1 1 0 0 0 59 37 z M 15 41 A 1 1 0 0 0 14 42 A 1 1 0 0 0 15 43 A 1 1 0 0 0 16 42 A 1 1 0 0 0 15 41 z M 59 41 A 1 1 0 0 0 58 42 A 1 1 0 0 0 59 43 A 1 1 0 0 0 60 42 A 1 1 0 0 0 59 41 z M 15 45 A 1 1 0 0 0 14 46 A 1 1 0 0 0 15 47 A 1 1 0 0 0 16 46 A 1 1 0 0 0 15 45 z M 59 45 A 1 1 0 0 0 58 46 A 1 1 0 0 0 59 47 A 1 1 0 0 0 60 46 A 1 1 0 0 0 59 45 z M 15 49 A 1 1 0 0 0 14 50 A 1 1 0 0 0 15 51 A 1 1 0 0 0 16 50 A 1 1 0 0 0 15 49 z M 59 49 A 1 1 0 0 0 58 50 A 1 1 0 0 0 59 51 A 1 1 0 0 0 60 50 A 1 1 0 0 0 59 49 z M 15 53 A 1 1 0 0 0 14 54 A 1 1 0 0 0 15 55 A 1 1 0 0 0 16 54 A 1 1 0 0 0 15 53 z M 19 53 A 1 1 0 0 0 18 54 A 1 1 0 0 0 19 55 A 1 1 0 0 0 20 54 A 1 1 0 0 0 19 53 z M 35 53 A 1 1 0 0 0 34 54 A 1 1 0 0 0 35 55 A 1 1 0 0 0 36 54 A 1 1 0 0 0 35 53 z M 39 53 A 1 1 0 0 0 38 54 A 1 1 0 0 0 39 55 A 1 1 0 0 0 40 54 A 1 1 0 0 0 39 53 z M 43 53 A 1 1 0 0 0 42 54 A 1 1 0 0 0 43 55 A 1 1 0 0 0 44 54 A 1 1 0 0 0 43 53 z M 47 53 A 1 1 0 0 0 46 54 A 1 1 0 0 0 47 55 A 1 1 0 0 0 48 54 A 1 1 0 0 0 47 53 z M 51 53 A 1 1 0 0 0 50 54 A 1 1 0 0 0 51 55 A 1 1 0 0 0 52 54 A 1 1 0 0 0 51 53 z M 55 53 A 1 1 0 0 0 54 54 A 1 1 0 0 0 55 55 A 1 1 0 0 0 56 54 A 1 1 0 0 0 55 53 z M 59 53 A 1 1 0 0 0 58 54 A 1 1 0 0 0 59 55 A 1 1 0 0 0 60 54 A 1 1 0 0 0 59 53 z"/></svg>