<svg fill="#000000" xmlns="http://www.w3.org/2000/svg"  viewBox="0 0 80 80" width="80px" height="80px"><path d="M 20.230469 12.828125 L 11.847656 20.910156 L 7.640625 16.59375 L 6.210938 17.992188 L 11.804688 23.734375 L 21.621094 14.269531 Z M 28 17 L 28 19 L 74 19 L 74 17 Z M 29 21 C 28.449219 21 28 21.449219 28 22 C 28 22.550781 28.449219 23 29 23 C 29.550781 23 30 22.550781 30 22 C 30 21.449219 29.550781 21 29 21 Z M 33 21 C 32.449219 21 32 21.449219 32 22 C 32 22.550781 32.449219 23 33 23 C 33.550781 23 34 22.550781 34 22 C 34 21.449219 33.550781 21 33 21 Z M 37 21 C 36.449219 21 36 21.449219 36 22 C 36 22.550781 36.449219 23 37 23 C 37.550781 23 38 22.550781 38 22 C 38 21.449219 37.550781 21 37 21 Z M 41 21 C 40.449219 21 40 21.449219 40 22 C 40 22.550781 40.449219 23 41 23 C 41.550781 23 42 22.550781 42 22 C 42 21.449219 41.550781 21 41 21 Z M 45 21 C 44.449219 21 44 21.449219 44 22 C 44 22.550781 44.449219 23 45 23 C 45.550781 23 46 22.550781 46 22 C 46 21.449219 45.550781 21 45 21 Z M 49 21 C 48.449219 21 48 21.449219 48 22 C 48 22.550781 48.449219 23 49 23 C 49.550781 23 50 22.550781 50 22 C 50 21.449219 49.550781 21 49 21 Z M 53 21 C 52.449219 21 52 21.449219 52 22 C 52 22.550781 52.449219 23 53 23 C 53.550781 23 54 22.550781 54 22 C 54 21.449219 53.550781 21 53 21 Z M 57 21 C 56.449219 21 56 21.449219 56 22 C 56 22.550781 56.449219 23 57 23 C 57.550781 23 58 22.550781 58 22 C 58 21.449219 57.550781 21 57 21 Z M 61 21 C 60.449219 21 60 21.449219 60 22 C 60 22.550781 60.449219 23 61 23 C 61.550781 23 62 22.550781 62 22 C 62 21.449219 61.550781 21 61 21 Z M 65 21 C 64.449219 21 64 21.449219 64 22 C 64 22.550781 64.449219 23 65 23 C 65.550781 23 66 22.550781 66 22 C 66 21.449219 65.550781 21 65 21 Z M 69 21 C 68.449219 21 68 21.449219 68 22 C 68 22.550781 68.449219 23 69 23 C 69.550781 23 70 22.550781 70 22 C 70 21.449219 69.550781 21 69 21 Z M 20.230469 32.828125 L 11.847656 40.910156 L 7.640625 36.59375 L 6.210938 37.992188 L 11.804688 43.734375 L 21.621094 34.269531 Z M 28 37 L 28 39 L 74 39 L 74 37 Z M 29 41 C 28.449219 41 28 41.449219 28 42 C 28 42.550781 28.449219 43 29 43 C 29.550781 43 30 42.550781 30 42 C 30 41.449219 29.550781 41 29 41 Z M 33 41 C 32.449219 41 32 41.449219 32 42 C 32 42.550781 32.449219 43 33 43 C 33.550781 43 34 42.550781 34 42 C 34 41.449219 33.550781 41 33 41 Z M 37 41 C 36.449219 41 36 41.449219 36 42 C 36 42.550781 36.449219 43 37 43 C 37.550781 43 38 42.550781 38 42 C 38 41.449219 37.550781 41 37 41 Z M 41 41 C 40.449219 41 40 41.449219 40 42 C 40 42.550781 40.449219 43 41 43 C 41.550781 43 42 42.550781 42 42 C 42 41.449219 41.550781 41 41 41 Z M 45 41 C 44.449219 41 44 41.449219 44 42 C 44 42.550781 44.449219 43 45 43 C 45.550781 43 46 42.550781 46 42 C 46 41.449219 45.550781 41 45 41 Z M 49 41 C 48.449219 41 48 41.449219 48 42 C 48 42.550781 48.449219 43 49 43 C 49.550781 43 50 42.550781 50 42 C 50 41.449219 49.550781 41 49 41 Z M 53 41 C 52.449219 41 52 41.449219 52 42 C 52 42.550781 52.449219 43 53 43 C 53.550781 43 54 42.550781 54 42 C 54 41.449219 53.550781 41 53 41 Z M 57 41 C 56.449219 41 56 41.449219 56 42 C 56 42.550781 56.449219 43 57 43 C 57.550781 43 58 42.550781 58 42 C 58 41.449219 57.550781 41 57 41 Z M 61 41 C 60.449219 41 60 41.449219 60 42 C 60 42.550781 60.449219 43 61 43 C 61.550781 43 62 42.550781 62 42 C 62 41.449219 61.550781 41 61 41 Z M 65 41 C 64.449219 41 64 41.449219 64 42 C 64 42.550781 64.449219 43 65 43 C 65.550781 43 66 42.550781 66 42 C 66 41.449219 65.550781 41 65 41 Z M 69 41 C 68.449219 41 68 41.449219 68 42 C 68 42.550781 68.449219 43 69 43 C 69.550781 43 70 42.550781 70 42 C 70 41.449219 69.550781 41 69 41 Z M 20.230469 52.828125 L 11.847656 60.910156 L 7.640625 56.59375 L 6.210938 57.992188 L 11.804688 63.734375 L 21.621094 54.269531 Z M 28 57 L 28 59 L 74 59 L 74 57 Z M 29 61 C 28.449219 61 28 61.449219 28 62 C 28 62.550781 28.449219 63 29 63 C 29.550781 63 30 62.550781 30 62 C 30 61.449219 29.550781 61 29 61 Z M 33 61 C 32.449219 61 32 61.449219 32 62 C 32 62.550781 32.449219 63 33 63 C 33.550781 63 34 62.550781 34 62 C 34 61.449219 33.550781 61 33 61 Z M 37 61 C 36.449219 61 36 61.449219 36 62 C 36 62.550781 36.449219 63 37 63 C 37.550781 63 38 62.550781 38 62 C 38 61.449219 37.550781 61 37 61 Z M 41 61 C 40.449219 61 40 61.449219 40 62 C 40 62.550781 40.449219 63 41 63 C 41.550781 63 42 62.550781 42 62 C 42 61.449219 41.550781 61 41 61 Z M 45 61 C 44.449219 61 44 61.449219 44 62 C 44 62.550781 44.449219 63 45 63 C 45.550781 63 46 62.550781 46 62 C 46 61.449219 45.550781 61 45 61 Z M 49 61 C 48.449219 61 48 61.449219 48 62 C 48 62.550781 48.449219 63 49 63 C 49.550781 63 50 62.550781 50 62 C 50 61.449219 49.550781 61 49 61 Z M 53 61 C 52.449219 61 52 61.449219 52 62 C 52 62.550781 52.449219 63 53 63 C 53.550781 63 54 62.550781 54 62 C 54 61.449219 53.550781 61 53 61 Z M 57 61 C 56.449219 61 56 61.449219 56 62 C 56 62.550781 56.449219 63 57 63 C 57.550781 63 58 62.550781 58 62 C 58 61.449219 57.550781 61 57 61 Z M 61 61 C 60.449219 61 60 61.449219 60 62 C 60 62.550781 60.449219 63 61 63 C 61.550781 63 62 62.550781 62 62 C 62 61.449219 61.550781 61 61 61 Z M 65 61 C 64.449219 61 64 61.449219 64 62 C 64 62.550781 64.449219 63 65 63 C 65.550781 63 66 62.550781 66 62 C 66 61.449219 65.550781 61 65 61 Z M 69 61 C 68.449219 61 68 61.449219 68 62 C 68 62.550781 68.449219 63 69 63 C 69.550781 63 70 62.550781 70 62 C 70 61.449219 69.550781 61 69 61 Z"/></svg>