<?xml version="1.0"?><svg fill="#000000" xmlns="http://www.w3.org/2000/svg"  viewBox="0 0 80 80" width="80px" height="80px">    <path d="M 41.648438 7.0039062 C 39.957298 7.0491155 38.325812 7.9369542 37.423828 9.4902344 L 36.75 10.625 L 36.197266 10.314453 C 35.05014 9.6683515 33.567963 10.061028 32.904297 11.201172 L 31.322266 13.923828 C 30.66651 15.054794 31.069483 16.530641 32.195312 17.185547 L 32.212891 17.195312 L 32.402344 17.294922 L 27.779297 25.552734 L 16.882812 29.318359 L 16.880859 29.320312 C 15.208516 29.878611 13.865679 31.144393 13.210938 32.78125 L 7.3847656 46.693359 L 7.3808594 46.701172 C 6.2772443 49.46021 7.6707339 52.616606 10.453125 53.660156 L 10.455078 53.660156 L 10.623047 53.724609 L 10.794922 53.724609 C 11.454536 53.922991 12.125995 53.991807 12.78125 53.949219 C 12.177122 55.520789 11.629879 57.02206 11.279297 58.154297 C 11.072202 58.823159 10.918273 59.526871 11.039062 60.277344 C 11.103439 60.677318 11.281605 61.075987 11.544922 61.431641 C 11.538066 61.442956 11.528083 61.451331 11.521484 61.462891 L 10.78125 62.755859 C 10.37025 63.474859 10.620844 64.390734 11.339844 64.802734 C 11.574844 64.936734 11.830031 65 12.082031 65 C 12.603031 65 13.109719 64.729141 13.386719 64.244141 L 14.126953 62.951172 C 14.128733 62.948058 14.129104 62.944527 14.130859 62.941406 C 14.643419 63.010796 15.154143 62.955643 15.583984 62.777344 C 16.294538 62.482605 16.835201 61.987796 17.3125 61.476562 C 19.191812 59.462543 22.611359 55.910112 24.806641 52.828125 C 25.104086 53.077153 25.42475 53.303529 25.787109 53.482422 C 25.789809 53.483822 34.685658 57.908488 41.033203 60.904297 A 1.0001 1.0001 0 0 0 41.054688 60.912109 C 41.128219 60.944789 41.104801 60.932623 41.099609 60.929688 C 42.252637 61.577672 43.584346 61.960936 45.001953 61.960938 C 46.719953 61.960938 50.384098 61.460766 53.769531 60.96875 C 56.539593 60.566168 58.176566 60.296724 59 60.164062 L 59 62 L 73 62 L 73 61 L 73 31.613281 L 59 36.279297 L 59 38.21875 L 56.203125 38.917969 L 43.009766 29.607422 C 44.586363 27.222812 46.224324 24.737248 47.486328 22.939453 A 1.0001 1.0001 0 0 0 47.494141 22.925781 C 47.863425 22.381656 48.038788 21.735788 47.994141 21.070312 C 47.949491 20.404837 47.645969 19.690069 47.03125 19.210938 A 1.0001 1.0001 0 0 0 46.865234 19.105469 L 46.646484 18.996094 L 46.677734 18.943359 C 47.340183 17.80238 46.92385 16.311503 45.777344 15.664062 L 45.775391 15.662109 L 45.484375 15.498047 L 46.121094 14.425781 L 46.123047 14.421875 C 47.497485 12.054865 46.649418 8.9997966 44.257812 7.6523438 C 43.659758 7.3152587 43.020517 7.1129161 42.375 7.0371094 C 42.132931 7.0086818 41.890028 6.9974479 41.648438 7.0039062 z M 41.548828 9.0058594 C 42.129047 8.9638503 42.728722 9.0864089 43.275391 9.3945312 C 44.731786 10.215078 45.220042 11.993017 44.392578 13.417969 L 42.720703 16.238281 L 44.792969 17.40625 C 45.004685 17.527041 45.062427 17.741103 44.947266 17.939453 L 43.365234 20.662109 C 43.251568 20.858146 43.005698 20.928591 42.792969 20.8125 L 42.779297 20.806641 L 41.117188 19.958984 L 27.544922 44.164062 C 27.118017 44.192187 26.697417 44.249549 26.294922 44.375 C 25.127831 44.738773 24.115648 45.575682 23.517578 46.787109 C 22.809125 48.222126 22.877711 49.833911 23.529297 51.177734 A 1.0001 1.0001 0 0 0 23.515625 51.197266 C 21.534951 54.117612 17.858964 57.96004 15.851562 60.111328 C 15.470861 60.519096 15.088853 60.816676 14.816406 60.929688 C 14.54396 61.042699 14.434029 61.060654 14.128906 60.888672 L 13.412109 60.484375 C 13.084888 60.300109 13.053632 60.209213 13.013672 59.960938 C 12.973712 59.71266 13.026552 59.272232 13.189453 58.746094 C 13.58611 57.465056 14.267475 55.622203 15.023438 53.724609 L 16.318359 53.724609 L 15.189453 53.300781 C 16.205991 50.783219 17.357887 48.200271 18.314453 46.552734 L 18.318359 46.546875 L 34.169922 18.232422 L 37.28125 19.882812 A 1.0001 1.0001 0 1 0 38.21875 18.117188 L 33.201172 15.457031 C 32.993002 15.335937 32.93849 15.124769 33.052734 14.927734 L 34.632812 12.207031 C 34.749147 12.007176 35.00197 11.936742 35.214844 12.056641 L 35.216797 12.056641 L 37.474609 13.326172 L 39.150391 10.498047 L 39.152344 10.494141 C 39.669561 9.6034543 40.581797 9.0758745 41.548828 9.0058594 z M 45.640625 20.730469 L 45.816406 20.818359 C 45.923389 20.911709 45.985633 21.020054 45.998047 21.205078 C 46.011317 21.402887 45.940547 21.648673 45.839844 21.798828 C 45.839225 21.799751 45.840465 21.801834 45.839844 21.802734 C 44.554645 23.634256 42.930444 26.099757 41.375 28.453125 L 39.576172 27.183594 A 1.0001 1.0001 0 0 0 39.414062 27.087891 L 41.921875 22.613281 L 41.859375 22.582031 L 41.833984 22.568359 C 42.977256 23.192268 44.439369 22.797979 45.095703 21.666016 L 45.640625 20.730469 z M 26.310547 28.175781 L 16.578125 45.5625 C 15.654229 47.155871 14.626554 49.390347 13.693359 51.636719 L 13.326172 51.833984 C 12.639586 52.052806 11.885626 52.060239 11.15625 51.787109 C 9.4012695 51.128895 8.5432585 49.185799 9.2382812 47.445312 L 9.2382812 47.443359 L 15.064453 33.53125 L 15.068359 33.523438 C 15.505277 32.431142 16.399177 31.586993 17.515625 31.214844 L 17.521484 31.214844 L 26.310547 28.175781 z M 38.4375 28.826172 L 40.263672 30.115234 C 39.770073 30.854711 39.181859 31.755984 38.78125 32.333984 L 38.798828 32.310547 C 38.134853 33.211299 37.903974 34.221784 38.005859 35.113281 C 38.195668 36.772788 39.345703 37.755859 39.345703 37.755859 A 1.0001 1.0001 0 1 0 40.654297 36.244141 C 40.654297 36.244141 40.092332 35.745212 39.994141 34.886719 C 39.944031 34.448216 40.012181 34.035295 40.408203 33.498047 A 1.0001 1.0001 0 0 0 40.425781 33.474609 C 40.830263 32.891021 41.408176 32.003444 41.898438 31.269531 L 55.423828 40.816406 A 1.0001 1.0001 0 0 0 56.242188 40.970703 L 59 40.28125 L 59 58.140625 C 58.353454 58.245449 56.402543 58.565844 53.482422 58.990234 C 50.117855 59.479218 46.283953 59.960938 45.001953 59.960938 C 43.903724 59.960938 42.88299 59.662981 41.996094 59.146484 A 1.0001 1.0001 0 0 0 41.886719 59.09375 C 41.876919 59.08915 41.873071 59.086651 41.863281 59.082031 C 35.551617 56.102463 26.675781 51.691406 26.675781 51.691406 A 1.0001 1.0001 0 0 0 26.671875 51.689453 C 25.175307 50.950612 24.571735 49.168385 25.310547 47.671875 C 25.690477 46.902302 26.201716 46.499884 26.890625 46.285156 C 27.579534 46.070429 28.479773 46.083559 29.496094 46.375 C 29.718505 46.43958 31.728516 47.003906 31.728516 47.003906 A 1.0001 1.0001 0 1 0 32.271484 45.080078 C 32.271484 45.080078 30.006609 44.440284 30.050781 44.453125 A 1.0001 1.0001 0 0 0 30.046875 44.451172 C 29.937199 44.419721 29.828245 44.404003 29.71875 44.376953 L 38.4375 28.826172 z M 71 34.388672 L 71 60 L 61 60 L 61 59.041016 A 1.0003669 1.0003669 0 0 0 61 58.957031 L 61 37.720703 L 71 34.388672 z M 64 40 A 1 1 0 0 0 63 41 A 1 1 0 0 0 64 42 A 1 1 0 0 0 65 41 A 1 1 0 0 0 64 40 z M 64 44 A 1 1 0 0 0 63 45 A 1 1 0 0 0 64 46 A 1 1 0 0 0 65 45 A 1 1 0 0 0 64 44 z M 42 45 A 1 1 0 0 0 41 46 A 1 1 0 0 0 42 47 A 1 1 0 0 0 43 46 A 1 1 0 0 0 42 45 z M 35 46 A 1 1 0 0 0 34 47 A 1 1 0 0 0 35 48 A 1 1 0 0 0 36 47 A 1 1 0 0 0 35 46 z M 38 47 A 1 1 0 0 0 37 48 A 1 1 0 0 0 38 49 A 1 1 0 0 0 39 48 A 1 1 0 0 0 38 47 z M 41 48 A 1 1 0 0 0 40 49 A 1 1 0 0 0 41 50 A 1 1 0 0 0 42 49 A 1 1 0 0 0 41 48 z M 64 48 A 1 1 0 0 0 63 49 A 1 1 0 0 0 64 50 A 1 1 0 0 0 65 49 A 1 1 0 0 0 64 48 z M 64 52 A 1 1 0 0 0 63 53 A 1 1 0 0 0 64 54 A 1 1 0 0 0 65 53 A 1 1 0 0 0 64 52 z M 64 56 A 1 1 0 0 0 63 57 A 1 1 0 0 0 64 58 A 1 1 0 0 0 65 57 A 1 1 0 0 0 64 56 z"/></svg>