<svg fill="#000000" xmlns="http://www.w3.org/2000/svg"  viewBox="0 0 80 80" width="80px" height="80px"><path d="M 29 9 C 28.523438 9 28.105469 9.113281 27.691406 9.234375 C 27.570313 9.226563 27.445313 9.242188 27.328125 9.28125 L 9.691406 15.09375 C 9.28125 15.226563 9.007813 15.609375 9.007813 16.042969 L 9 29 C 9 29.390625 9.226563 29.746094 9.582031 29.90625 C 9.582031 29.90625 11.792969 30.921875 14.546875 31.9375 C 17.296875 32.953125 20.542969 34 23 34 C 25.484375 34 27.632813 33.742188 29.347656 33.488281 C 31.066406 33.238281 32.390625 33 33 33 C 34.183594 33 35.671875 33.179688 37 33.375 L 37 36.414063 L 39.585938 39 L 41 39 L 41 48.414063 L 42.585938 50 L 45.414063 50 L 47 48.414063 L 47 39 L 48.414063 39 L 51 36.414063 L 51 30.585938 L 50.011719 29.597656 C 50.617188 28.894531 51 27.992188 51 27 C 51 25.886719 50.539063 24.871094 49.800781 24.148438 L 49.871094 24.222656 L 42.683594 15.574219 C 42.597656 15.472656 42.492188 15.386719 42.375 15.328125 L 31.410156 9.628906 C 31.363281 9.605469 31.3125 9.582031 31.261719 9.566406 C 30.59375 9.222656 29.828125 9 29 9 Z M 29 11 C 29.515625 11 29.996094 11.144531 30.441406 11.390625 C 30.558594 11.457031 30.6875 11.496094 30.824219 11.511719 L 30.667969 11.496094 L 41.273438 17.007813 L 48.332031 25.5 C 48.355469 25.527344 48.375 25.550781 48.402344 25.578125 C 48.773438 25.941406 49 26.4375 49 27 C 49 28.117188 48.117188 29 47 29 C 46.359375 29 45.804688 28.699219 45.433594 28.222656 C 45.394531 28.175781 45.355469 28.132813 45.3125 28.09375 L 38.324219 20.390625 C 38.195313 20.25 38.03125 20.148438 37.84375 20.097656 L 30.261719 18.035156 C 30.175781 18.011719 30.089844 18 30 18 C 29.546875 18 29.308594 18.109375 28.933594 18.261719 C 28.558594 18.414063 28.136719 18.636719 27.71875 18.941406 C 26.878906 19.550781 26 20.585938 26 22 L 26 24 C 26 24.550781 26.449219 25 27 25 L 31 25 C 36.765625 25 41.9375 28.234375 41.988281 28.265625 C 42.003906 28.277344 42.019531 28.289063 42.035156 28.300781 C 42.617188 28.65625 43 29.273438 43 30 C 43 31.117188 42.117188 32 41 32 C 40.859375 32 40.714844 31.980469 40.550781 31.941406 C 40.546875 31.941406 40.539063 31.941406 40.53125 31.941406 C 40.53125 31.941406 40.453125 31.925781 40.453125 31.925781 C 40.449219 31.925781 40.445313 31.925781 40.445313 31.925781 C 40.300781 31.894531 36.074219 31 33 31 C 31.980469 31 30.726563 31.261719 29.058594 31.511719 C 27.386719 31.757813 25.347656 32 23 32 C 21.164063 32 17.910156 31.046875 15.234375 30.0625 C 12.886719 29.195313 11.433594 28.527344 11 28.328125 L 11.003906 16.765625 L 27.757813 11.246094 L 27.605469 11.234375 C 27.746094 11.246094 27.890625 11.226563 28.027344 11.179688 C 28.355469 11.066406 28.675781 11 29 11 Z M 29.941406 20.019531 L 37.039063 21.953125 L 39.71875 24.90625 C 37.488281 23.957031 34.46875 23 31 23 L 28 23 L 28 22 C 28 21.414063 28.363281 20.949219 28.894531 20.558594 C 29.160156 20.363281 29.457031 20.210938 29.691406 20.113281 C 29.882813 20.035156 29.976563 20.027344 29.941406 20.019531 Z M 45.441406 30.621094 C 45.917969 30.847656 46.433594 31 47 31 C 47.46875 31 47.917969 30.902344 48.339844 30.75 L 49 31.414063 L 49 35.585938 L 47.585938 37 L 45 37 L 45 47.585938 L 44.585938 48 L 43.414063 48 L 43 47.585938 L 43 37 L 40.414063 37 L 39 35.585938 L 39 33.703125 C 39.363281 33.769531 40.125 33.902344 40.125 33.902344 C 40.191406 33.914063 40.261719 33.921875 40.332031 33.921875 C 40.546875 33.960938 40.757813 34 41 34 C 41.636719 34 42.230469 33.832031 42.761719 33.558594 C 43.101563 33.832031 43.527344 34 44 34 C 45.105469 34 46 33.105469 46 32 C 46 31.464844 45.785156 30.976563 45.441406 30.621094 Z M 58 49 C 56.898438 49 55.84375 49.222656 54.890625 49.625 L 41.390625 54.144531 C 41.308594 54.175781 41.234375 54.210938 41.160156 54.257813 C 39.398438 54.816406 38.097656 56.398438 38.015625 58.316406 C 38.003906 58.378906 38 58.4375 38 58.5 C 38 58.765625 38.027344 59.023438 38.078125 59.277344 C 38.117188 59.507813 38.183594 59.726563 38.261719 59.941406 C 38.261719 59.945313 38.261719 59.945313 38.261719 59.949219 L 38.125 59.96875 L 24.703125 54.386719 C 24.574219 54.335938 24.441406 54.308594 24.308594 54.3125 C 23.894531 54.160156 23.476563 54 23 54 C 20.800781 54 19 55.800781 19 58 C 19 59.40625 19.808594 60.550781 20.910156 61.265625 C 21.011719 61.421875 21.152344 61.546875 21.324219 61.628906 L 37.855469 69.515625 C 37.914063 69.542969 37.976563 69.566406 38.042969 69.582031 C 38.636719 69.839844 39.296875 70 40 70 C 40.320313 70 40.609375 69.945313 40.890625 69.890625 C 40.992188 69.898438 41.09375 69.890625 41.191406 69.867188 L 60.984375 65.03125 L 69.730469 67.496094 C 70.03125 67.578125 70.355469 67.519531 70.605469 67.328125 C 70.851563 67.140625 71 66.84375 71 66.53125 L 71 52.46875 C 71 52 70.671875 51.59375 70.214844 51.492188 L 59.820313 49.207031 C 59.742188 49.191406 59.664063 49.1875 59.589844 49.1875 C 59.078125 49.082031 58.554688 49 58 49 Z M 58 51 C 58.460938 51 58.914063 51.058594 59.359375 51.160156 C 59.398438 51.171875 59.4375 51.175781 59.480469 51.183594 L 69 53.273438 L 69 65.210938 L 61.269531 63.035156 C 61.105469 62.992188 60.929688 62.988281 60.765625 63.03125 L 40.890625 67.878906 L 41.015625 67.894531 C 40.902344 67.882813 40.789063 67.886719 40.675781 67.914063 C 40.441406 67.96875 40.214844 68 40 68 C 39.554688 68 39.132813 67.894531 38.738281 67.707031 C 38.648438 67.667969 38.550781 67.636719 38.453125 67.625 L 38.5625 67.636719 L 23.03125 60.230469 L 22.683594 61.09375 C 22.882813 60.597656 22.65625 60.035156 22.171875 59.8125 C 21.480469 59.496094 21 58.8125 21 58 C 21 56.882813 21.882813 56 23 56 C 23.304688 56 23.59375 56.074219 23.875 56.214844 C 24.367188 56.457031 24.960938 56.253906 25.207031 55.765625 L 24.796875 56.59375 L 37.613281 61.921875 C 37.785156 61.996094 37.972656 62.015625 38.15625 61.988281 L 39.453125 61.785156 C 40.257813 62.535156 41.324219 63 42.5 63 C 43.171875 63 43.800781 62.84375 44.316406 62.691406 C 44.835938 62.539063 45.324219 62.359375 45.324219 62.359375 C 45.675781 62.273438 45.953125 61.996094 46.046875 61.640625 C 46.136719 61.289063 46.027344 60.914063 45.761719 60.664063 C 45.496094 60.410156 45.113281 60.328125 44.765625 60.441406 C 44.46875 60.527344 44.183594 60.648438 43.753906 60.773438 C 43.324219 60.898438 42.828125 61 42.5 61 C 41.761719 61 41.109375 60.679688 40.652344 60.175781 C 40.628906 60.140625 40.605469 60.105469 40.578125 60.074219 C 40.398438 59.855469 40.253906 59.613281 40.15625 59.355469 C 40.148438 59.332031 40.144531 59.308594 40.136719 59.289063 C 40.097656 59.183594 40.070313 59.074219 40.046875 58.960938 C 40.019531 58.8125 40 58.65625 40 58.5 C 40 57.308594 40.824219 56.332031 41.933594 56.074219 C 42.296875 55.988281 42.585938 55.707031 42.675781 55.34375 L 42.542969 55.871094 L 55.59375 51.5 C 55.621094 51.488281 55.644531 51.480469 55.667969 51.46875 C 56.382813 51.167969 57.167969 51 58 51 Z M 54 57 C 53.449219 57 53 57.449219 53 58 C 53 58.550781 53.449219 59 54 59 C 54.550781 59 55 58.550781 55 58 C 55 57.449219 54.550781 57 54 57 Z M 51 58 C 50.449219 58 50 58.449219 50 59 C 50 59.550781 50.449219 60 51 60 C 51.550781 60 52 59.550781 52 59 C 52 58.449219 51.550781 58 51 58 Z M 48 59 C 47.449219 59 47 59.449219 47 60 C 47 60.550781 47.449219 61 48 61 C 48.550781 61 49 60.550781 49 60 C 49 59.449219 48.550781 59 48 59 Z"/></svg>