<svg fill="#000000" xmlns="http://www.w3.org/2000/svg"  viewBox="0 0 80 80" width="80px" height="80px"><path d="M 62.4375 7.039063 C 62 7.050781 61.554688 7.078125 61.109375 7.117188 C 59.914063 7.230469 58.695313 7.453125 57.484375 7.757813 C 52.640625 8.976563 47.792969 11.582031 44.6875 14.6875 C 42.285156 17.089844 40.914063 19.679688 40.566406 22.332031 C 40.253906 24.726563 40.886719 27.121094 42.09375 29.417969 L 39 32.515625 L 15.394531 8.90625 L 14.6875 10.613281 L 13.953125 8.9375 C 8.195313 15.179688 8.394531 24.878906 14.398438 30.886719 L 27.515625 44 L 8.757813 62.757813 C 6.421875 65.09375 6.421875 68.90625 8.757813 71.242188 C 11.09375 73.578125 14.90625 73.578125 17.242188 71.242188 L 36.421875 52.0625 L 41.09375 51.578125 L 60.605469 71.09375 C 62.796875 73.285156 66.375 73.648438 68.808594 71.640625 C 71.558594 69.367188 71.714844 65.230469 69.242188 62.757813 L 47.484375 41 L 50.582031 37.90625 C 52.878906 39.113281 55.273438 39.746094 57.667969 39.433594 C 60.320313 39.085938 62.910156 37.714844 65.3125 35.3125 C 68.417969 32.207031 71.023438 27.359375 72.242188 22.515625 C 73.460938 17.675781 73.332031 12.703125 70.3125 9.6875 C 68.332031 7.703125 65.511719 6.96875 62.4375 7.039063 Z M 62.433594 9.058594 C 65.117188 9 67.433594 9.632813 68.902344 11.097656 C 71.132813 13.332031 71.433594 17.542969 70.300781 22.03125 C 69.171875 26.515625 66.652344 31.144531 63.902344 33.898438 C 61.734375 36.066406 59.558594 37.167969 57.40625 37.449219 C 55.257813 37.730469 53.074219 37.195313 50.855469 35.871094 L 50.183594 35.472656 L 46.070313 39.585938 L 40.414063 33.929688 L 44.527344 29.816406 L 44.128906 29.144531 C 42.804688 26.925781 42.269531 24.742188 42.550781 22.59375 C 42.832031 20.441406 43.933594 18.265625 46.101563 16.097656 C 48.855469 13.347656 53.488281 10.828125 57.972656 9.695313 C 59.09375 9.414063 60.199219 9.222656 61.257813 9.125 C 61.65625 9.089844 62.046875 9.066406 62.433594 9.058594 Z M 14.789063 11.128906 L 37.585938 33.929688 L 37.550781 33.964844 L 46.035156 42.449219 L 46.070313 42.414063 L 67.828125 64.171875 C 69.492188 65.835938 69.402344 68.550781 67.53125 70.09375 C 65.941406 71.410156 63.523438 71.179688 62.019531 69.675781 L 41.832031 49.492188 L 41.359375 49.542969 L 36.398438 50.054688 L 15.8125 29.46875 C 10.804688 24.464844 10.464844 16.597656 14.789063 11.128906 Z M 28.929688 45.414063 L 32.09375 48.578125 C 32.03125 48.710938 32 48.855469 32 49 C 32 49.550781 32.449219 50 33 50 C 33.144531 50 33.289063 49.96875 33.421875 49.90625 L 34.585938 51.070313 L 15.828125 69.828125 C 14.257813 71.398438 11.742188 71.398438 10.171875 69.828125 C 8.601563 68.257813 8.601563 65.742188 10.171875 64.171875 Z M 47 47 C 46.449219 47 46 47.449219 46 48 C 46 48.550781 46.449219 49 47 49 C 47.550781 49 48 48.550781 48 48 C 48 47.449219 47.550781 47 47 47 Z M 50 50 C 49.449219 50 49 50.449219 49 51 C 49 51.550781 49.449219 52 50 52 C 50.550781 52 51 51.550781 51 51 C 51 50.449219 50.550781 50 50 50 Z M 30 51 C 29.449219 51 29 51.449219 29 52 C 29 52.550781 29.449219 53 30 53 C 30.550781 53 31 52.550781 31 52 C 31 51.449219 30.550781 51 30 51 Z M 53 53 C 52.449219 53 52 53.449219 52 54 C 52 54.550781 52.449219 55 53 55 C 53.550781 55 54 54.550781 54 54 C 54 53.449219 53.550781 53 53 53 Z M 27 54 C 26.449219 54 26 54.449219 26 55 C 26 55.550781 26.449219 56 27 56 C 27.550781 56 28 55.550781 28 55 C 28 54.449219 27.550781 54 27 54 Z M 56 56 C 55.449219 56 55 56.449219 55 57 C 55 57.550781 55.449219 58 56 58 C 56.550781 58 57 57.550781 57 57 C 57 56.449219 56.550781 56 56 56 Z M 24 57 C 23.449219 57 23 57.449219 23 58 C 23 58.550781 23.449219 59 24 59 C 24.550781 59 25 58.550781 25 58 C 25 57.449219 24.550781 57 24 57 Z M 59 59 C 58.449219 59 58 59.449219 58 60 C 58 60.550781 58.449219 61 59 61 C 59.550781 61 60 60.550781 60 60 C 60 59.449219 59.550781 59 59 59 Z M 21 60 C 20.449219 60 20 60.449219 20 61 C 20 61.550781 20.449219 62 21 62 C 21.550781 62 22 61.550781 22 61 C 22 60.449219 21.550781 60 21 60 Z M 62 62 C 61.449219 62 61 62.449219 61 63 C 61 63.550781 61.449219 64 62 64 C 62.550781 64 63 63.550781 63 63 C 63 62.449219 62.550781 62 62 62 Z M 18 63 C 17.449219 63 17 63.449219 17 64 C 17 64.550781 17.449219 65 18 65 C 18.550781 65 19 64.550781 19 64 C 19 63.449219 18.550781 63 18 63 Z M 65 65 C 64.449219 65 64 65.449219 64 66 C 64 66.550781 64.449219 67 65 67 C 65.550781 67 66 66.550781 66 66 C 66 65.449219 65.550781 65 65 65 Z M 15 66 C 14.449219 66 14 66.449219 14 67 C 14 67.550781 14.449219 68 15 68 C 15.550781 68 16 67.550781 16 67 C 16 66.449219 15.550781 66 15 66 Z"/></svg>