<svg viewBox="-7 -2 88 80" fill="none" xmlns="http://www.w3.org/2000/svg"><circle cx="37" cy="38" r="30" fill="#AE92D3"/><path d="M35.3 20.4l-16.26-3.6c-.84-.18-1.62.36-1.8 1.14l-2.1 9.54c-1.86 8.52.06 16.14 4.5 18.36L16.46 60l-3.78-.84c-.84-.18-1.62.36-1.8 1.14-.18.84.36 1.62 1.14 1.8l10.5 2.34c.12 0 .24.06.3.06.72 0 1.32-.48 1.5-1.2.18-.84-.36-1.62-1.14-1.8l-3.78-.84 3.12-14.1c2.28-.06 4.62-1.38 6.72-3.84 2.34-2.76 4.14-6.6 5.1-10.92l2.1-9.54c.06-.42 0-.78-.18-1.14-.24-.36-.6-.6-.96-.72zm-15.48-.3l13.32 2.94-.78 3.66H18.38l1.44-6.6zm7.08 20.64c-1.74 2.1-3.66 3.06-5.28 2.7-2.94-.66-5.1-6.3-3.9-13.74h13.92l-.3 1.38c-.84 3.9-2.4 7.32-4.44 9.66zM65.12 60.3c-.18-.84-1.02-1.32-1.8-1.14l-3.78.84-3.12-14.1c4.38-2.22 6.36-9.84 4.5-18.36L58.82 18c-.18-.84-1.02-1.32-1.8-1.14l-16.26 3.6c-.42.06-.72.3-.96.66-.24.36-.3.78-.18 1.14l2.1 9.54c.96 4.32 2.76 8.22 5.1 10.92 2.1 2.46 4.44 3.78 6.72 3.84l3.06 14.1-3.78.84c-.84.18-1.32 1.02-1.14 1.8.18.72.78 1.2 1.5 1.2.12 0 .24 0 .3-.06l10.5-2.34c.84-.12 1.38-.96 1.14-1.8zm-8.94-40.2l1.44 6.6H43.64l-.78-3.66 13.32-2.94zM49.1 40.74c-2.04-2.34-3.6-5.76-4.44-9.66l-.3-1.38h13.92c1.2 7.38-.96 13.08-3.9 13.74-1.62.36-3.54-.6-5.28-2.7zM38 7.5c-.84 0-1.5.66-1.5 1.5v4.26c0 .84.66 1.5 1.5 1.5s1.5-.66 1.5-1.5V9c0-.84-.66-1.5-1.5-1.5zm5.94 8.64c.18.12.42.12.66.12.6 0 1.14-.3 1.38-.9l1.8-3.9c.36-.78 0-1.68-.72-2.04-.78-.36-1.68 0-2.04.72l-1.8 3.9c-.36.84 0 1.74.72 2.1zm-13.92-.72c.24.54.78.9 1.38.9.24 0 .42-.06.66-.12.78-.36 1.08-1.26.72-2.04l-1.8-3.9c-.36-.78-1.26-1.08-2.04-.72-.78.36-1.08 1.26-.72 2.04l1.8 3.84z" fill="#000"/></svg>