<svg viewBox="-6 -5 88 80" fill="none" xmlns="http://www.w3.org/2000/svg"><circle cx="38" cy="35" r="30" fill="#34E0A1"/><path d="M38.72 22.52c-4.32-.18-8.46 1.32-11.58 4.32-3.12 3-4.86 7.02-4.86 11.34 0 3.54 1.14 6.9 3.36 9.72 1.92 2.46 3.24 4.8 4.08 7.26l.06.18v6.3c0 .78.6 1.5 1.38 1.62.3 3.48 3.24 6.24 6.84 6.24 3.6 0 6.54-2.76 6.84-6.3.78-.12 1.38-.78 1.38-1.62v-6.24l.06-.18c.84-2.46 2.16-4.8 4.08-7.2 2.34-2.94 3.54-6.66 3.36-10.38-.42-8.1-6.96-14.7-15-15.06zM42.92 56v3.96h-9.84V56h9.84zM38 66.2c-1.8 0-3.24-1.32-3.54-3h7.08c-.3 1.74-1.74 3-3.54 3zm9.72-20.34c-1.8 2.28-3.12 4.5-4.08 6.84H32.36c-.96-2.28-2.28-4.56-4.08-6.84-1.74-2.22-2.64-4.86-2.64-7.68 0-3.42 1.38-6.6 3.84-9 2.46-2.34 5.7-3.6 9.18-3.42 6.36.3 11.52 5.52 11.82 11.82.06 3.06-.9 5.94-2.76 8.28zM38 18.8c.9 0 1.62-.72 1.62-1.62v-3.06c0-.9-.72-1.62-1.62-1.62-.9 0-1.62.72-1.62 1.62v3.06c0 .9.72 1.62 1.62 1.62zm-11.94 2.04c.3.54.84.84 1.44.84.3 0 .54-.06.84-.24.78-.48 1.08-1.44.6-2.22l-1.5-2.64c-.48-.78-1.44-1.08-2.22-.6-.78.48-1.08 1.44-.6 2.22l1.44 2.64zm-5.46 5.4l-2.64-1.5c-.78-.48-1.8-.18-2.22.6-.48.78-.18 1.8.6 2.22l2.64 1.5c.24.12.54.24.84.24.54 0 1.14-.3 1.44-.84.42-.72.12-1.74-.66-2.22zm-1.98 11.94c0-.9-.72-1.62-1.62-1.62h-3.06c-.9 0-1.62.72-1.62 1.62 0 .9.72 1.62 1.62 1.62H17c.9.06 1.62-.72 1.62-1.62zm.36 9.12l-2.64 1.5c-.78.48-1.08 1.44-.6 2.22.3.54.84.84 1.44.84.3 0 .54-.06.84-.24l2.64-1.5c.78-.48 1.08-1.44.6-2.22-.48-.78-1.5-1.08-2.28-.6zm40.68 1.5l-2.64-1.5c-.78-.48-1.8-.18-2.22.6-.48.78-.18 1.8.6 2.22l2.64 1.5c.24.12.54.24.84.24.54 0 1.14-.3 1.44-.84.36-.78.12-1.74-.66-2.22zm2.4-12.24H59c-.9 0-1.62.72-1.62 1.62 0 .9.72 1.62 1.62 1.62h3.06c.9 0 1.62-.72 1.62-1.62 0-.9-.72-1.62-1.62-1.62zm-5.88-7.26c.3 0 .54-.06.84-.24l2.64-1.5c.78-.48 1.08-1.44.6-2.22-.48-.78-1.44-1.08-2.22-.6l-2.64 1.5c-.78.48-1.08 1.44-.6 2.22.3.6.84.84 1.38.84zm-8.52-7.86c.24.12.54.24.84.24.54 0 1.14-.3 1.44-.84l1.5-2.64c.48-.78.18-1.8-.6-2.22-.78-.48-1.8-.18-2.22.6l-1.5 2.64c-.48.72-.24 1.74.54 2.22z" fill="#000"/><path d="M42.74 34.64l-6.42 6.42L33.26 38c-.66-.6-1.68-.6-2.34 0a1.63 1.63 0 000 2.34l4.2 4.2c.3.3.72.48 1.14.48.42 0 .84-.18 1.14-.48l7.56-7.56c.66-.66.66-1.68 0-2.34-.54-.6-1.56-.6-2.22 0z" fill="#000"/></svg>