<svg viewBox="-5 -1 88 80" fill="none" xmlns="http://www.w3.org/2000/svg"><circle cx="39" cy="39" r="30" fill="#F2B203"/><path d="M36.16 23.84c-2.64 2.4-16 14.8-16.56 18.8-.56 4.32 0 6.88 1.76 7.84.64.32 2.48.88 5.2 1.68 1.12.32 2.48.72 2.72.8.08.16.08.32 0 .56-.08.16-.32.4-.64.4H18.32c-.24 0-.48-.08-.64-.24-3.36-3.84-4.8-5.12-6.8-7.04C9.6 45.52 8.24 44.16 6 41.92c-1.12-1.12-1.6-2.08-1.44-2.88.32-1.84 3.76-3.44 6.24-4.56.96-.48 1.92-.88 2.64-1.28 3.52-2.08 7.76-7.36 8-7.6.4-.56.32-1.28-.16-1.76-.56-.4-1.28-.32-1.76.16-.08.08-4.16 5.2-7.28 7.04-.64.4-1.52.8-2.4 1.2-3.12 1.44-7.04 3.28-7.6 6.4-.32 1.68.4 3.36 2.16 5.12 2.24 2.24 3.76 3.68 4.96 4.72 2 1.84 3.36 3.12 6.64 6.88a3.28 3.28 0 002.48 1.12H28.8c1.2 0 2.32-.64 2.88-1.76.56-1.04.48-2.16-.16-3.12-.24-.4-.64-.64-.96-.8-.4-.16-1.36-.48-3.04-.96-1.6-.48-4.24-1.2-4.72-1.44-.08 0-1.12-.64-.48-5.28.24-2.08 8.24-10.4 15.76-17.28.48-.48.56-1.28.08-1.76-.64-.64-1.44-.72-2-.24zm32.8 23.36c-3.84-.4-6.48-1.76-8.16-4-1.44-1.84-1.44-11.92-1.04-18.4.08-.72-.48-1.28-1.12-1.28-.72 0-1.28.48-1.28 1.12-.16 2.8-.88 16.88 1.6 20.08 2.08 2.72 5.44 4.4 9.84 4.88 4.56.56 6.88 2.4 6.8 2.88 0 0-1.04 1.84-10.4 1.28-5.04-.32-7.04-.24-9.68-.16-1.68.08-3.6.16-6.8.16-1.6-.08-2.64-.32-3.12-1.04-1.04-1.52.24-5.04 1.12-7.6.4-1.04.72-1.92.96-2.8 1.04-3.92.16-17.28.16-17.84-.08-.72-.64-1.2-1.28-1.12-.72.08-1.2.64-1.12 1.28.24 3.76.72 14.16-.08 17.04-.16.72-.48 1.6-.88 2.56-1.2 3.28-2.64 7.28-.88 9.92.96 1.36 2.64 2.08 5.12 2.08 3.2 0 5.2-.08 6.88-.16 2.72-.08 4.56-.16 9.52.16 1.2.08 2.24.08 3.28.08 6.16 0 9.52-1.28 9.68-3.68.16-2.4-3.76-4.8-9.12-5.44z" fill="#000"/><path d="M50.56 50.8c.72.56 1.6.8 2.48.8.24 0 .48 0 .72-.08.64-.08 1.12-.72 1.04-1.44-.08-.64-.72-1.12-1.44-1.04-.48.08-.96 0-1.36-.32-.4-.32-.64-.72-.72-1.2-.08-.48 0-.96.32-1.36.4-.56.24-1.36-.24-1.76-.56-.4-1.36-.24-1.76.24-.64.96-.96 2.08-.72 3.2.16 1.28.8 2.24 1.68 2.96zM13.52 38.64c.64-.08 1.12-.72 1.04-1.44-.08-.64-.72-1.12-1.44-1.04-1.12.16-2.08.8-2.8 1.68a4.334 4.334 0 00.96 6c.24.16.48.24.72.24.4 0 .8-.16 1.04-.48.4-.56.24-1.36-.24-1.76-.8-.56-.96-1.68-.4-2.48.24-.4.64-.64 1.12-.72z" fill="#000"/></svg>