<svg viewBox="-3 -1 88 80" fill="none" xmlns="http://www.w3.org/2000/svg"><circle cx="41" cy="39" r="30" fill="#FCC"/><path d="M48.71 46.37c.62-1.55.992-3.224.992-5.022 0-7.564-6.138-13.702-13.702-13.702s-13.702 6.138-13.702 13.702c0 1.798.372 3.472.992 5.022h3.906a9.825 9.825 0 01-1.364-5.022C25.894 35.768 30.42 31.18 36 31.18c5.58 0 10.106 4.526 10.106 10.106a9.995 9.995 0 01-1.364 5.022h3.968v.062zm14.942 3.782H8.348A1.8 1.8 0 006.55 51.95a1.8 1.8 0 001.798 1.798h55.366a1.8 1.8 0 001.798-1.798c-.062-.992-.868-1.798-1.86-1.798zm-9.424 7.378H17.772a1.8 1.8 0 00-1.798 1.798 1.8 1.8 0 001.798 1.798h36.456a1.8 1.8 0 001.798-1.798 1.8 1.8 0 00-1.798-1.798zM36 23.988a1.8 1.8 0 001.798-1.798v-5.518A1.8 1.8 0 0036 14.874a1.8 1.8 0 00-1.798 1.798v5.518A1.8 1.8 0 0036 23.988zm-11.098 1.674c.31.558.93.868 1.55.868.31 0 .62-.062.868-.248.868-.496 1.116-1.55.62-2.418l-2.79-4.774c-.496-.868-1.55-1.116-2.418-.62-.868.496-1.116 1.55-.62 2.418l2.79 4.774zM13.804 30.56l4.774 2.79c.31.186.558.248.868.248.62 0 1.178-.31 1.55-.868a1.788 1.788 0 00-.62-2.418L15.54 27.46a1.788 1.788 0 00-2.418.62c-.496.93-.186 1.984.682 2.48zm-2.418 12.524h5.518a1.8 1.8 0 001.798-1.798 1.8 1.8 0 00-1.798-1.798h-5.518a1.8 1.8 0 00-1.798 1.798c0 1.054.806 1.798 1.798 1.798zm41.974-1.736a1.8 1.8 0 001.798 1.798h5.518a1.8 1.8 0 001.798-1.798 1.8 1.8 0 00-1.798-1.798h-5.518c-1.054 0-1.798.806-1.798 1.798zm-.806-7.812c.31 0 .62-.062.868-.248l4.774-2.79c.868-.496 1.116-1.55.62-2.418-.496-.868-1.55-1.116-2.418-.62l-4.774 2.79c-.868.496-1.116 1.55-.62 2.418.31.558.93.868 1.55.868zm-7.874-7.192c.248.186.558.248.868.248.62 0 1.178-.31 1.55-.868l2.79-4.774a1.788 1.788 0 00-.62-2.418 1.788 1.788 0 00-2.418.62l-2.79 4.774c-.558.806-.248 1.922.62 2.418z" fill="#000"/></svg>