<?xml version="1.0" encoding="utf-8"?>
<!-- Generator: Adobe Illustrator 16.0.0, SVG Export Plug-In . SVG Version: 6.00 Build 0)  -->
<!DOCTYPE svg PUBLIC "-//W3C//DTD SVG 1.1//EN" "http://www.w3.org/Graphics/SVG/1.1/DTD/svg11.dtd">
<svg version="1.1" id="Layer_1" xmlns="http://www.w3.org/2000/svg" xmlns:xlink="http://www.w3.org/1999/xlink" x="0px" y="0px"
	 width="186.585px" height="60.438px" viewBox="0.208 0.281 186.585 60.438" enable-background="new 0.208 0.281 186.585 60.438"
	 xml:space="preserve">
<g>
	<g>
		<path fill="#7446AF" d="M96.504,60.719h5.853l5.85-26.484H96.504V60.719z"/>
		<path fill="#F2B203" d="M106.737,3.94c0,2.021-1.68,3.658-3.752,3.658s-3.75-1.637-3.75-3.658c0-2.019,1.678-3.659,3.75-3.659
			S106.737,1.921,106.737,3.94z"/>
		<path fill="#34E0A1" d="M106.163,8.73c-0.699-1.093-2.006-1.132-2.006-1.132h-3.002c-4.875,0-4.651,5.268-4.651,5.268v21.365
			h11.702C111.631,18.734,108.015,11.326,106.163,8.73z"/>
		<path fill="#F2B203" d="M127.409,60.719h5.852l5.85-26.484h-11.701V60.719L127.409,60.719z"/>
		<path fill="#34E0A1" d="M137.644,3.94c0,2.021-1.68,3.658-3.752,3.658c-2.074,0-3.75-1.637-3.75-3.658
			c0.002-2.019,1.68-3.659,3.75-3.659C135.964,0.281,137.644,1.921,137.644,3.94z"/>
		<path fill="#7446AF" d="M137.067,8.73c-0.695-1.093-2.006-1.132-2.006-1.132h-3.002c-4.875,0-4.65,5.268-4.65,5.268v21.365h11.701
			C142.536,18.734,138.92,11.326,137.067,8.73z"/>
		<path fill="#FF5D5D" d="M158.317,60.719h5.85l5.854-26.484h-11.703V60.719z"/>
		<path fill="#F2B203" d="M168.549,3.94c0,2.021-1.677,3.658-3.753,3.658c-2.072,0-3.749-1.637-3.749-3.658
			c0.003-2.019,1.681-3.659,3.752-3.659C166.872,0.281,168.549,1.921,168.549,3.94z"/>
		<path fill="#FFCCCC" d="M167.974,8.73c-0.695-1.093-2.007-1.132-2.007-1.132h-3.001c-4.871,0-4.648,5.268-4.648,5.268v21.365
			h11.701C173.442,18.734,169.829,11.326,167.974,8.73z"/>
		<path d="M173.672,60.719h5.853l5.853-26.484h-11.705V60.719z M183.906,3.94c0,2.021-1.677,3.658-3.753,3.658
			c-2.069,0-3.748-1.637-3.748-3.658c0-2.019,1.679-3.659,3.748-3.659C182.228,0.281,183.906,1.921,183.906,3.94z"/>
		<path fill="#F2B203" d="M183.331,8.73c-0.696-1.093-2.003-1.132-2.003-1.132h-3.002c-4.875,0-4.654,5.268-4.654,5.268v21.365
			h11.705C188.796,18.734,185.183,11.326,183.331,8.73L183.331,8.73z"/>
		<path d="M142.767,60.719h5.853l5.849-26.484h-11.701V60.719z"/>
		<path fill="#FF6666" d="M153,3.94c0,2.021-1.679,3.658-3.749,3.658c-2.072,0-3.752-1.637-3.752-3.658
			c0-2.019,1.68-3.659,3.752-3.659C151.317,0.281,153,1.921,153,3.94z"/>
		<path fill="#34E0A1" d="M152.426,8.73c-0.696-1.093-2.007-1.132-2.007-1.132h-2.999c-4.878,0-4.651,5.268-4.651,5.268v21.365
			h11.703C157.894,18.734,154.276,11.326,152.426,8.73z M111.858,60.719h5.853l5.853-26.484h-11.705V60.719z"/>
		<path d="M122.092,3.94c0,2.021-1.676,3.658-3.752,3.658c-2.069,0-3.752-1.637-3.752-3.658c0.003-2.019,1.685-3.659,3.755-3.659
			C120.416,0.281,122.092,1.921,122.092,3.94z"/>
		<path fill="#FF6666" d="M121.517,8.73c-0.699-1.093-2.006-1.132-2.006-1.132h-2.998c-4.879,0-4.654,5.268-4.654,5.268v21.365
			h11.705C126.987,18.734,123.375,11.326,121.517,8.73L121.517,8.73z"/>
	</g>
	<g>
		<path fill="#7446AF" d="M90.498,60.719h-5.854l-5.85-26.484h11.703V60.719z"/>
		<path fill="#F2B203" d="M80.263,3.94c0,2.021,1.68,3.658,3.752,3.658c2.073,0,3.75-1.637,3.75-3.658
			c0-2.019-1.677-3.659-3.75-3.659C81.942,0.281,80.263,1.921,80.263,3.94z"/>
		<path fill="#34E0A1" d="M80.838,8.73c0.7-1.093,2.006-1.132,2.006-1.132h3.002c4.875,0,4.651,5.268,4.651,5.268v21.365H78.796
			C75.37,18.734,78.985,11.326,80.838,8.73z"/>
		<path fill="#F2B203" d="M59.592,60.719H53.74L47.89,34.234h11.702V60.719z"/>
		<path fill="#34E0A1" d="M49.357,3.94c0,2.021,1.681,3.658,3.752,3.658c2.073,0,3.75-1.637,3.75-3.658
			c-0.003-2.019-1.68-3.659-3.75-3.659C51.038,0.281,49.357,1.921,49.357,3.94z"/>
		<path fill="#7446AF" d="M49.933,8.73c0.696-1.093,2.006-1.132,2.006-1.132h3.002c4.875,0,4.651,5.268,4.651,5.268v21.365H47.89
			C44.465,18.734,48.08,11.326,49.933,8.73z"/>
		<path fill="#FF5D5D" d="M28.683,60.719h-5.85L16.98,34.234h11.702V60.719z"/>
		<path fill="#F2B203" d="M18.452,3.94c0,2.021,1.677,3.658,3.753,3.658c2.071,0,3.749-1.637,3.749-3.658
			c-0.003-2.019-1.681-3.659-3.752-3.659C20.129,0.281,18.452,1.921,18.452,3.94z"/>
		<path fill="#FFCCCC" d="M19.027,8.73c0.695-1.093,2.007-1.132,2.007-1.132h3.001c4.872,0,4.647,5.268,4.647,5.268v21.365H16.98
			C13.559,18.734,17.172,11.326,19.027,8.73L19.027,8.73z"/>
		<path d="M13.328,60.719H7.477L1.624,34.234h11.705L13.328,60.719L13.328,60.719z M3.095,3.94c0,2.021,1.676,3.658,3.752,3.658
			c2.07,0,3.75-1.637,3.75-3.658c-0.001-2.019-1.681-3.659-3.751-3.659C4.773,0.281,3.095,1.921,3.095,3.94z"/>
		<path fill="#F2B203" d="M3.67,8.73c0.696-1.093,2.003-1.132,2.003-1.132h3.002c4.875,0,4.654,5.268,4.654,5.268v21.365H1.624
			C-1.796,18.734,1.817,11.326,3.67,8.73z"/>
		<path d="M44.234,60.719h-5.853l-5.85-26.484h11.702V60.719z"/>
		<path fill="#FF6666" d="M34,3.94c0,2.021,1.68,3.658,3.75,3.658c2.073,0,3.752-1.637,3.752-3.658c0-2.019-1.681-3.659-3.752-3.659
			C35.683,0.281,34,1.921,34,3.94z"/>
		<path fill="#34E0A1" d="M34.575,8.73c0.695-1.093,2.007-1.132,2.007-1.132h2.999c4.878,0,4.649,5.268,4.649,5.268v21.365H32.531
			C29.107,18.734,32.725,11.326,34.575,8.73L34.575,8.73z M75.143,60.719H69.29l-5.853-26.484h11.705V60.719z"/>
		<path d="M64.908,3.94c0,2.021,1.677,3.658,3.753,3.658c2.069,0,3.752-1.637,3.752-3.658c-0.003-2.019-1.686-3.659-3.755-3.659
			C66.585,0.281,64.908,1.921,64.908,3.94z"/>
		<path fill="#FF6666" d="M65.483,8.73c0.699-1.093,2.007-1.132,2.007-1.132h2.999c4.878,0,4.653,5.268,4.653,5.268v21.365H63.438
			C60.013,18.734,63.626,11.326,65.483,8.73z"/>
	</g>
</g>
</svg>
