<svg xmlns="http://www.w3.org/2000/svg" fill="#faf1ed" viewBox="0 0 188 118"><path d="M94.5 0a58.5 57.5 0 00-56.99 44.559 31.966 31.966 0 00-8.516-13.637 49.763 49.763 0 001.28 17.742 22.611 22.611 0 005.874 11.43 58.5 57.5 0 00.522 5.592 32.762 32.762 0 00-11.791-7.971 48.531 48.531 0 007.687 16.105c2.24 3.42 5.344 6.159 8.963 8.002a58.5 57.5 0 001.924 3.58 32.12 32.12 0 00-15.703-7.591 49.01 49.01 0 0010.8 14.005 23.383 23.383 0 0014.946 6.864c-.057-.122-.121-.24-.18-.362a58.5 57.5 0 004.746 4.162 26.829 26.829 0 00-10.216-.453 40.218 40.218 0 0011.056 5.936c3.152 1.29 6.618 1.699 9.996 1.225a58.5 57.5 0 006.217 2.56c-2.21.437-4.318 1.188-6.219 2.24a35.94 35.94 0 0010.168 1.123 16.57 16.57 0 005.416-1.052A58.5 57.5 0 0094.5 115a58.5 57.5 0 008.76-.73c1.65.545 3.422.841 5.228.841 3.442.111 6.881-.27 10.166-1.123-1.648-.925-3.46-1.613-5.36-2.064a58.5 57.5 0 006.544-2.598 19.04 19.04 0 008.726-1.365 41.704 41.704 0 0011.143-5.938 27.387 27.387 0 00-8.307.059 58.5 57.5 0 003.91-3.437c5.336-.46 10.34-2.87 14.09-6.829a48.83 48.83 0 0010.403-14.005c-4.913.901-9.522 3.027-13.451 6.158a58.5 57.5 0 001.326-2.637 22.485 22.485 0 007.656-7.512 49.555 49.555 0 007.338-16.105c-3.808 1.57-7.245 3.918-10.149 6.86a58.5 57.5 0 00.442-6.471 22.585 22.585 0 004.334-9.44 49.051 49.051 0 001.234-17.742 31.383 31.383 0 00-7.619 11.361A58.5 57.5 0 0094.5 0zM53.496 98.68c.029.06.061.12.09.181v-.172c-.03-.002-.06-.007-.09-.01zM94.35 7c13.738 0 26.915 5.36 36.629 14.9 9.715 9.541 15.171 22.482 15.171 35.975 0 10.062-3.038 19.897-8.73 28.264-5.692 8.366-13.781 14.888-23.246 18.738a52.675 52.675 0 01-29.93 2.894c-10.048-1.963-19.277-6.806-26.521-13.921-7.245-7.115-12.18-16.18-14.178-26.05a50.032 50.032 0 012.947-29.394c3.92-9.296 10.562-17.242 19.08-22.832C74.091 9.984 84.105 7 94.35 7zm-.493 5.686a46.89 46.89 0 00-8.435.869c-8.935 1.75-17.142 6.061-23.584 12.388-6.442 6.328-10.832 14.387-12.613 23.162a44.529 44.529 0 002.603 26.143c3.479 8.27 9.373 15.342 16.942 20.324a46.7 46.7 0 0025.58 7.666 46.836 46.836 0 0017.69-3.43 46.165 46.165 0 0014.995-9.831 45.239 45.239 0 0010.012-14.729 44.565 44.565 0 003.49-17.373 44.707 44.707 0 00-7.805-25.123c-5.073-7.433-12.273-13.224-20.693-16.64a46.84 46.84 0 00-18.182-3.426zm-85.244 7.71a62.618 62.618 0 006.328 21.09 27.741 27.741 0 0013.766 14.317 54.204 54.204 0 00-5.559-19.547 39.393 39.393 0 00-14.535-15.86zm171.283 0c-6.539 3.779-11.852 9.276-15.326 15.86a53 53 0 00-5.724 19.547c6.493-2.864 11.669-7.963 14.533-14.317a63.7 63.7 0 006.517-21.09zm-85.373 14.84a40.744 40.744 0 0122.791 6.953h13.038l-5.872 6.274a17.475 17.475 0 014.291 5.885 17.197 17.197 0 011.495 7.088 17.337 17.337 0 01-2.909 9.634 17.788 17.788 0 01-7.81 6.489 18.168 18.168 0 01-10.154 1.218 18 18 0 01-9.172-4.453l-5.698 6.106-5.785-6.106a18.002 18.002 0 01-9.172 4.453c-3.433.575-6.962.15-10.154-1.218a17.79 17.79 0 01-7.81-6.489 17.332 17.332 0 01-2.909-9.634c-.034-2.451.475-4.88 1.489-7.12a16.975 16.975 0 014.382-5.853l-5.87-6.274H71.73a40.748 40.748 0 0122.793-6.953zm-.043 5.77c-4.607 0-9.17.892-13.425 2.625a19.755 19.755 0 019.38 6.726 19.202 19.202 0 013.915 10.74c.2-3.914 1.602-7.679 4.021-10.796a19.768 19.768 0 019.533-6.67 35.598 35.598 0 00-13.424-2.625zM4.785 43.36a59.716 59.716 0 008.635 19.88c3.344 5.92 8.786 10.424 15.287 12.655a48.8 48.8 0 00-7.428-18.517c-4.03-6.121-9.751-10.985-16.494-14.018zm178.94 0a38.89 38.89 0 00-16.346 14.018 50.896 50.896 0 00-7.303 18.42 27.645 27.645 0 0015.135-12.559 61.68 61.68 0 008.514-19.879zM160.076 75.8c-.092.031-.181.067-.273.097h.254l.02-.097zM76.926 49.4a12.388 12.388 0 00-2.682.215 12.247 12.247 0 00-6.256 3.252 11.896 11.896 0 00-3.355 6.121 11.754 11.754 0 00.678 6.918 12.003 12.003 0 004.482 5.38 12.33 12.33 0 006.771 2.02 12.28 12.28 0 004.653-.878 12.112 12.112 0 003.951-2.569 11.86 11.86 0 002.643-3.861c.612-1.446.927-2.996.927-4.562a11.799 11.799 0 00-2.01-6.665 12.127 12.127 0 00-5.445-4.44 12.356 12.356 0 00-4.357-.93zm35.54 0a12.393 12.393 0 00-2.685.221 12.25 12.25 0 00-6.254 3.277 11.892 11.892 0 00-3.336 6.141 11.762 11.762 0 00.713 6.928 12.01 12.01 0 004.522 5.361 12.332 12.332 0 006.795 1.979 12.2 12.2 0 008.547-3.477 11.77 11.77 0 003.54-8.394 11.803 11.803 0 00-2.015-6.674 12.129 12.129 0 00-5.461-4.44 12.354 12.354 0 00-4.365-.922zm-35.902 5.762c1.695 0 3.32.661 4.518 1.838a6.216 6.216 0 011.871 4.436 6.196 6.196 0 01-1.076 3.486 6.364 6.364 0 01-2.867 2.31 6.498 6.498 0 01-3.692.358 6.419 6.419 0 01-3.27-1.717 6.244 6.244 0 01-1.75-3.213 6.17 6.17 0 01.364-3.625 6.302 6.302 0 012.354-2.816 6.47 6.47 0 013.548-1.057zm35.83 0c1.695 0 3.318.661 4.516 1.838a6.216 6.216 0 011.871 4.436 6.196 6.196 0 01-1.076 3.486 6.36 6.36 0 01-2.865 2.31 6.504 6.504 0 01-3.694.358 6.423 6.423 0 01-3.27-1.717 6.24 6.24 0 01-1.747-3.213 6.17 6.17 0 01.361-3.625 6.31 6.31 0 012.354-2.816 6.476 6.476 0 013.55-1.057zM0 66.328a58.84 58.84 0 0013.215 16.586c4.828 4.892 11.383 7.852 18.363 8.293v-.25c-2.828-5.98-6.886-11.34-11.928-15.756C14.071 70.551 7.27 67.48 0 66.328zm187.553 0c-7.157 1.19-13.838 4.259-19.309 8.873-5.082 4.4-9.17 9.762-12.014 15.756l-.255.25c6.98-.44 13.535-3.4 18.363-8.293a58.837 58.837 0 0013.215-16.586zM19.217 93.121a37.71 37.71 0 00-7.735.775 56.214 56.214 0 0017.032 10.366 26.727 26.727 0 0018.99.95h.342a47.412 47.412 0 00-15.926-9.847 37.75 37.75 0 00-12.703-2.244zm149.137 0c-4.301.014-8.588.765-12.674 2.244a48.29 48.29 0 00-15.973 9.848 26.605 26.605 0 0018.945-.951 55.878 55.878 0 0017.418-10.366 37.543 37.543 0 00-7.716-.775zM45.496 108.436a30.274 30.274 0 00-16.789 4.77 72.984 72.984 0 0018.479 4.452 31.011 31.011 0 0017.882-2.654v-.256a36.734 36.734 0 00-17.03-6.166 30.26 30.26 0 00-2.542-.146zm96.715 0c-.838.015-1.678.068-2.518.158-6.04.616-11.84 2.792-16.873 6.33h-.338a29.761 29.761 0 0017.717 2.726 68.936 68.936 0 0018.647-4.308c-4.976-3.32-10.766-5.016-16.635-4.906z"/></svg>
