<?xml version="1.0" encoding="utf-8"?>
<!-- Generator: Adobe Illustrator 16.0.0, SVG Export Plug-In . SVG Version: 6.00 Build 0)  -->
<!DOCTYPE svg PUBLIC "-//W3C//DTD SVG 1.1//EN" "http://www.w3.org/Graphics/SVG/1.1/DTD/svg11.dtd">
<svg version="1.1" id="Layer_3" xmlns="http://www.w3.org/2000/svg" xmlns:xlink="http://www.w3.org/1999/xlink" x="0px" y="0px"
	 width="72px" height="72px" viewBox="0 0 72 72" style="enable-background:new 0 0 72 72;" xml:space="preserve">
<style type="text/css">
<![CDATA[
	.st0{fill:#34E0A1;}
]]>
</style>
<path class="st0" d="M72,36c0,19.9-16.1,36-36,36S0,55.9,0,36C0,16.1,16.1,0,36,0S72,16.1,72,36"/>
<path d="M58.2,28.9l4.3-4.7h-9.6C48.1,20.9,42.3,19,36,19c-6.3,0-12.1,1.9-16.9,5.2H9.5l4.3,4.7c-2.7,2.4-4.3,5.9-4.3,9.8
	c0,7.3,5.9,13.2,13.2,13.2c3.5,0,6.6-1.3,9-3.5L36,53l4.2-4.6c2.4,2.2,5.5,3.5,9,3.5c7.3,0,13.2-5.9,13.2-13.2
	C62.5,34.8,60.8,31.3,58.2,28.9 M22.8,47.6c-5,0-9-4-9-9c0-5,4-9,9-9s9,4,9,9C31.7,43.6,27.7,47.6,22.8,47.6 M36,38.4
	c0-5.9-4.3-11-9.9-13.1c3.1-1.3,6.4-2,9.9-2c3.5,0,6.9,0.7,9.9,2C40.3,27.5,36,32.5,36,38.4 M49.2,47.6c-5,0-9-4-9-9c0-5,4-9,9-9
	s9,4,9,9C58.2,43.6,54.2,47.6,49.2,47.6 M49.2,34c-2.6,0-4.7,2.1-4.7,4.7c0,2.6,2.1,4.7,4.7,4.7s4.7-2.1,4.7-4.7
	C53.9,36.1,51.8,34,49.2,34 M27.5,38.7c0,2.6-2.1,4.7-4.7,4.7c-2.6,0-4.7-2.1-4.7-4.7c0-2.6,2.1-4.7,4.7-4.7
	C25.4,34,27.5,36.1,27.5,38.7"/>
</svg>
