<svg width="132" height="53" viewBox="0 0 132 53" fill="none" xmlns="http://www.w3.org/2000/svg">
    <path fill-rule="evenodd" clip-rule="evenodd" d="M85.3236 22.3699H94.022C92.1674 30.1181 85.2013 35.8785 76.8873 35.8785C67.1535 35.8785 59.2633 27.9883 59.2633 18.2545C59.2633 8.52066 67.1535 0.630493 76.8873 0.630493C85.2034 0.630493 92.1674 6.39084 94.022 14.139H85.3236C83.7989 11.0196 80.5943 8.87017 76.8873 8.87017C71.7037 8.87017 67.5008 13.073 67.5008 18.2567C67.5008 23.4403 71.7037 27.6432 76.8873 27.6432C80.5943 27.641 83.7989 25.4915 85.3236 22.3699ZM114.163 35.8784L114.165 35.8762L114.168 35.8784L114.163 35.8784ZM114.163 35.8784L96.5369 50.6386H131.785L114.168 35.8784L114.213 35.8785C123.947 35.8785 131.837 27.9883 131.837 18.2545C131.837 8.52066 123.947 0.630493 114.213 0.630493C104.479 0.630493 96.589 8.52066 96.589 18.2545C96.589 27.9715 104.452 35.8512 114.163 35.8784ZM20.2255 10.0278V1.17215H15.5596C12.4315 1.17215 9.43444 2.90222 8.70266 7.29729V1.17215H0.0479457V35.2515H9.3711V15.3535C9.3711 11.7601 11.1012 10.0278 14.6967 10.0278H20.2255ZM114.213 27.641C109.029 27.641 104.827 23.4381 104.827 18.2545C104.827 13.0708 109.029 8.86797 114.213 8.86797C119.397 8.86797 123.6 13.0708 123.6 18.2545C123.597 23.4381 119.397 27.641 114.213 27.641ZM38.8218 8.86797C42.3059 8.86797 45.3467 10.7684 46.9653 13.5885H30.6782C32.2969 10.7684 35.3354 8.86797 38.8218 8.86797ZM56.4459 18.2545C56.4459 18.9644 56.3978 19.6613 56.317 20.3493V20.3515H29.6735C30.6259 24.526 34.3591 27.641 38.8219 27.641C42.0439 27.641 44.8858 26.0158 46.5766 23.543H55.6376C53.392 30.6926 46.712 35.8785 38.8219 35.8785C29.088 35.8785 21.1979 27.9883 21.1979 18.2545C21.1979 8.52066 29.088 0.630493 38.8219 0.630493C48.5557 0.630493 56.4459 8.52066 56.4459 18.2545ZM37.2138 44.9154C36.6786 44.9154 36.2133 45.195 36.0844 45.8722V44.9154H34.8371V50.6692H36.1762V47.0933C36.1762 46.4751 36.4798 46.1737 37.0958 46.1737H38.0854V44.9154H37.2138ZM40.7289 44.9154H39.3898V50.6692H40.7289V44.9154ZM39.1671 43.1924C39.1671 42.692 39.5626 42.2943 40.0652 42.2943C40.5547 42.2943 40.9502 42.6898 40.9502 43.1924C40.9502 43.6819 40.5547 44.0774 40.0652 44.0774C39.5648 44.0796 39.1671 43.6819 39.1671 43.1924ZM45.3407 45.9881C46.3066 45.9881 47.0998 46.7005 47.0998 47.7952C47.0998 48.89 46.3088 49.6002 45.3407 49.6024C44.3967 49.6024 43.5926 48.89 43.5926 47.7952C43.5926 46.6983 44.3967 45.9881 45.3407 45.9881ZM42.3474 44.9154H43.5947V45.7083C43.9442 45.1732 44.6891 44.7537 45.5978 44.7537C47.2165 44.7537 48.4267 46.0928 48.4267 47.7945C48.4267 49.4962 47.1575 50.8352 45.5498 50.8352C44.6542 50.8352 44.025 50.4507 43.6865 50.0073V53H42.3474V44.9154ZM52.676 45.9881C53.62 45.9881 54.4242 46.7005 54.4242 47.7952C54.4242 48.89 53.62 49.6002 52.676 49.6024C51.7102 49.6024 50.917 48.89 50.917 47.7952C50.917 46.6983 51.7102 45.9881 52.676 45.9881ZM49.5909 47.7945C49.5909 46.0928 50.8491 44.7537 52.4678 44.7537C53.3656 44.7537 54.0296 45.0902 54.425 45.5576V44.9176H55.6723L55.6701 50.6714H54.4228V49.8435C54.0384 50.4136 53.4093 50.833 52.4306 50.833C50.801 50.8352 49.5909 49.494 49.5909 47.7945ZM60.0484 45.9881C60.9924 45.9881 61.7965 46.7005 61.7965 47.7952C61.7965 48.89 60.9924 49.6002 60.0484 49.6024C59.0825 49.6024 58.2893 48.89 58.2893 47.7952C58.2893 46.6983 59.0825 45.9881 60.0484 45.9881ZM56.9615 47.7945C56.9615 46.0929 58.2197 44.7538 59.8384 44.7538C60.7362 44.7538 61.3762 45.1142 61.7017 45.5336V42.5169H63.0407L63.0385 50.6714H61.7912V49.8435C61.4068 50.4137 60.7777 50.8331 59.799 50.8331C58.1738 50.8353 56.9615 49.494 56.9615 47.7945ZM67.5469 50.6715H66.0222L64.0628 44.9177H65.4848L66.5683 48.4019C66.6536 48.6721 66.7106 48.8913 66.7744 49.1367L66.7746 49.1376L66.7748 49.1382L66.7889 49.1926C66.8326 48.9877 66.8853 48.8022 66.9441 48.5953C66.9617 48.5331 66.9799 48.469 66.9986 48.4019L68.0821 44.9177H69.5151L67.5469 50.6715ZM70.5397 44.9154H71.8787L71.8765 50.6692H70.5375L70.5397 44.9154ZM71.217 42.2943C70.7144 42.2943 70.3189 42.692 70.3189 43.1924C70.3189 43.6819 70.7144 44.0796 71.217 44.0774C71.7065 44.0774 72.102 43.6819 72.102 43.1924C72.102 42.6898 71.7065 42.2943 71.217 42.2943ZM73.172 48.7971C73.1731 50.0192 74.0924 50.833 75.3848 50.833C76.678 50.833 77.5518 49.9702 77.5518 48.8867C77.5518 48.0238 76.9926 47.5236 76.2127 47.303L75.3739 47.0583C74.8256 46.9076 74.5809 46.7197 74.5809 46.3833C74.5809 46.0579 74.9064 45.835 75.3499 45.835C75.7933 45.835 76.1188 46.1496 76.1188 46.5231H77.377C77.377 45.5096 76.6212 44.7537 75.352 44.7537C74.2227 44.7537 73.279 45.4047 73.2768 46.4423C73.2768 47.2571 73.812 47.7945 74.5809 48.0151L75.3848 48.2488C75.979 48.4236 76.2477 48.6224 76.2477 49.0178C76.2477 49.4131 75.9091 49.6818 75.3979 49.6818C74.8496 49.6818 74.5132 49.3083 74.5132 48.7971H73.172ZM81.5585 45.9881C82.5265 45.9881 83.3066 46.6873 83.3066 47.7952C83.3066 48.9009 82.5265 49.6024 81.5585 49.6024C80.5904 49.6024 79.8103 48.9009 79.8103 47.7952C79.8103 46.6873 80.5904 45.9881 81.5585 45.9881ZM78.4822 47.7945C78.4822 46.0928 79.7295 44.7537 81.5578 44.7537C83.3862 44.7537 84.6313 46.0928 84.6313 47.7945C84.6313 49.494 83.384 50.8352 81.5557 50.8352C79.7273 50.8352 78.4822 49.494 78.4822 47.7945ZM87.1717 45.8722C87.3005 45.195 87.7658 44.9154 88.301 44.9154H89.1726V46.1737H88.1831C87.567 46.1737 87.2634 46.4751 87.2634 47.0933V50.6692H85.9243V44.9154H87.1717V45.8722ZM34.6517 42.5169H28.5834V43.8101H30.912L30.9098 50.6714H32.3188L32.3209 43.8101H34.6517V42.5169ZM2.9468 43.7533C2.42253 43.7533 2.17788 44.0089 2.17788 44.5331V44.9176H3.53004V46.0251H2.17788V50.6736H0.838821V46.0251H0V44.9176H0.838821V44.4174C0.838821 43.2072 1.5859 42.5191 2.64535 42.5191H3.53004V43.7533H2.9468ZM7.37666 44.9154C6.84147 44.9154 6.374 45.195 6.2473 45.8722V44.9154H4.99999L4.99781 50.6692H6.33687V47.0933C6.33687 46.4751 6.6405 46.1737 7.25651 46.1737H8.24824V44.9154H7.37666ZM12.059 45.9881C13.027 45.9881 13.8071 46.6873 13.8071 47.7952C13.8071 48.9009 13.027 49.6024 12.059 49.6024C11.091 49.6024 10.3109 48.9009 10.3109 47.7952C10.3109 46.6873 11.091 45.9881 12.059 45.9881ZM8.98233 47.7945C8.98233 46.0928 10.2296 44.7537 12.058 44.7537C13.8864 44.7537 15.1337 46.0928 15.1337 47.7945C15.1337 49.494 13.8864 50.8352 12.058 50.8352C10.2275 50.8352 8.98233 49.494 8.98233 47.7945ZM17.7616 50.6715H16.4225L16.4203 44.9177H17.6677V45.6997C17.8883 45.1514 18.4606 44.756 19.2404 44.756C19.9853 44.756 20.4987 45.1274 20.7193 45.6407C20.988 45.1754 21.5581 44.756 22.362 44.756C23.4236 44.756 24.0047 45.5118 24.0047 46.6303V50.6715H22.6656V46.8858C22.6656 46.3266 22.3292 45.9312 21.7809 45.9312C21.2326 45.9312 20.8831 46.3266 20.8831 46.8858V50.6715H19.5441V46.8858C19.5441 46.3266 19.2055 45.9312 18.6594 45.9312C18.1111 45.9312 17.7616 46.3266 17.7616 46.8858V50.6715Z" fill="white"/>
</svg>
