<?xml version="1.0" encoding="utf-8"?>
<!-- Generator: Adobe Illustrator 16.0.0, SVG Export Plug-In . SVG Version: 6.00 Build 0)  -->
<!DOCTYPE svg PUBLIC "-//W3C//DTD SVG 1.1//EN" "http://www.w3.org/Graphics/SVG/1.1/DTD/svg11.dtd">
<svg version="1.1" id="Layer_1" xmlns="http://www.w3.org/2000/svg" xmlns:xlink="http://www.w3.org/1999/xlink" x="0px" y="0px"
	 width="585px" height="389px" viewBox="0 0 585 389" enable-background="new 0 0 585 389" xml:space="preserve">
<g>
	<g>
		<path fill="#FF6666" d="M147.941,49.125H148h2.76c-0.842-0.685-1.547-1.585-2.016-2.642c-1.644-3.679-0.02-8.005,3.66-9.668
			c0.254-0.117,0.508-0.215,0.763-0.293c1.566-0.783,2.779-2.231,3.151-4.09c0.646-3.21-1.429-6.322-4.619-6.968
			c-0.215-0.039-0.411-0.078-0.626-0.098c0,0-9.395-0.783-14.836-7.163c-0.685-0.626-1.272-1.39-1.722-2.251
			c-6.184,5.676-8.357,14.894-4.736,22.977c2.133,4.775,5.91,8.298,10.353,10.197h3.23H147.941z"/>
		<path d="M151.112,25.384c0.196,0.02,0.411,0.039,0.626,0.098c3.19,0.646,5.245,3.757,4.619,6.967
			c-0.372,1.859-1.585,3.308-3.151,4.09c-0.254,0.078-0.509,0.176-0.763,0.293c-3.66,1.664-5.304,5.989-3.641,9.668
			c0.47,1.057,1.175,1.957,2.016,2.642h1.664h3.307c0.118-0.059,0.235-0.098,0.353-0.156c1.252-0.568,2.407-1.233,3.464-2.016
			c7.515-5.441,10.471-15.599,6.517-24.425c-2.681-5.989-7.926-10.021-13.856-11.332c0,0-1.821-0.88-2.819-2.563
			c-1.879-4.208-6.791-6.067-10.96-4.188c-4.169,1.879-6.047,6.811-4.169,11.019c0.079,0.176,0.157,0.333,0.255,0.489
			c0.45,0.861,1.037,1.625,1.722,2.251C141.718,24.602,151.112,25.384,151.112,25.384z"/>
		<path fill="#FF6666" d="M31.158,29.259l-0.803-0.215c-2.994-1.565-6.556-5.226-6.556-5.226l-0.803-0.88
			c-0.9-1.018-1.977-1.84-3.19-2.427c-0.254-0.195-0.548-0.333-0.881-0.411l-0.137-0.02c-0.9-0.313-1.839-0.509-2.798-0.568
			L2.642,16.753c-1.194-0.254-2.349,0.528-2.603,1.722c-0.235,1.194,0.529,2.368,1.723,2.623l6.458,1.331
			c-2.31,2.271-3.503,5.617-2.896,9.062c0.822,4.717,4.736,8.122,9.277,8.455l14.6,2.857l32.665,16.049c0,0,0.215,0.098,0.528,0.254
			l0.431,0.215c0.059,0.02,0.098,0.02,0.157,0.059c0.9,0.411,2.427,0.979,4.403,1.546l5.128-20.276L31.158,29.259z"/>
		<path fill="#34E0A1" d="M212.899,110.52l0.059-0.019l-0.294-0.431c-0.43-0.763-0.939-1.487-1.507-2.172l-24.66-42.666
			l-1.272-2.192c-0.45-0.705-1.018-1.546-1.703-2.486v-0.059c-0.117-0.137-0.235-0.293-0.372-0.45
			c-0.293-0.372-0.587-0.744-0.9-1.135v0.118c-4.227-4.658-11.195-9.923-21.196-9.923h-5.304h-3.307h-1.664h-2.759h-0.079h-4.56
			h-3.229h-5.245h-9.023l-1.82,0.078l-51.571-8.552l-5.128,20.276l35.66,10.353l0.469,0.137c1.918,0.607,12.213,5.578,11.156,18.887
			l-8.787,79.616h42.059h42.059l-0.039-2.779l-1.86-37.714l0.411,0.117c0,0,0.216,0.059,0.568,0.137l0.45,0.118
			c0.059,0.019,0.098,0.019,0.157,0.019c0.92,0.196,2.407,0.451,4.305,0.588c1.214,0.587,2.525,1.017,3.915,1.233l0.528,0.176
			l-0.058-0.118c0.587,0.079,1.174,0.118,1.761,0.118c7.985,0,14.463-6.518,14.463-14.542
			C214.602,114.807,213.956,112.536,212.899,110.52z"/>
		<path fill="#FFFFFF" d="M164.362,354.656h20.706v1.486c1.116-7.045,1.938-13.914,2.525-20.531h-25.012L164.362,354.656z"/>
		<path d="M147.902,169.9h-42.039l4.168,63.374c0,0,1.879,13.269,1.233,25.481h29.397l2.544-29.749
			c0.626-5.264,4.638-4.873,4.638-4.873c0.02,0,0.04,0,0.079,0c0.019,0,0.039,0,0.058,0c0,0,4.013-0.391,4.658,4.873l2.78,29.749
			h29.22c-0.646-12.213,1.233-25.481,1.233-25.481l4.169-63.374l-0.137-2.779l0.058,2.779H147.902z"/>
		<path fill="#FFFFFF" d="M110.834,355.398v-0.742h21.587l1.624-19.045h-25.658C108.974,341.993,109.777,348.628,110.834,355.398z"
			/>
		<path fill="#FF6666" d="M111.205,259.734v0.039c-0.195,3.014-0.548,5.93-1.135,8.553c-1.017,7.965-2.387,19.689-2.779,27.517
			c-0.45,10.862-0.274,24.563,1.116,39.75h25.658l6.596-76.856h-29.397C111.245,259.088,111.225,259.421,111.205,259.734z"/>
		<path fill="#FF6666" d="M162.581,335.632h25.012c1.37-15.188,1.487-28.907,1.037-39.75c-0.411-7.827-1.781-19.571-2.798-27.536
			c-0.588-2.623-0.94-5.539-1.136-8.554l-0.019-0.058c-0.02-0.334-0.039-0.646-0.059-0.979h-29.22L162.581,335.632z"/>
		<path fill="#004F35" d="M110.834,355.398v30.356h0.019c0.059,0.548,0.255,1.056,0.626,1.644h22.723c0,0,2.368-1.057,2.525-3.465
			c0.019-0.488-0.059-1.037-0.235-1.644c-0.137-0.411-0.333-0.88-0.587-1.351l-3.484-9.08v-17.185h-21.587V355.398z"/>
		<path fill="#004F35" d="M164.362,354.654v17.635l-3.132,8.631c-0.254,0.49-0.45,0.939-0.567,1.352
			c-0.176,0.606-0.255,1.154-0.235,1.644c0.156,2.427,2.407,3.464,2.407,3.464h21.607c0.333-0.607,0.529-1.115,0.587-1.645h0.02
			v-29.611v-1.487h-20.687V354.654z"/>
	</g>
	<g>
		<path fill="#FFFFFF" d="M305.198,91.595c-1.82-2.896-4.873-4.521-8.044-4.678l3.836-5.206c0.705-0.959,0.509-2.309-0.45-3.033
			c-0.959-0.705-2.31-0.509-3.015,0.47L289.6,89.912c-0.666,0.685-1.214,1.429-1.644,2.25l-0.078,0.098
			c-0.196,0.274-0.314,0.567-0.372,0.861c-0.49,1.214-0.744,2.544-0.744,3.856v1.155c0,0-0.196,4.99-1.37,8.102l-0.45,0.685
			l-4.051,6.322l5.401,24.445l8.925-22.214l8.768-11.665C307.058,100.578,307.704,95.548,305.198,91.595z"/>
		<path fill="#FFFFFF" d="M194.032,184.266l0.274-15.031l0.372-6.185l-12.565-0.019l1.253,13.132l-2.329,13.779
			c-1.214,4.11,0.469,8.689,4.345,10.96c3.092,1.82,6.791,1.701,9.687,0.019l-1.096-16.655H194.032z"/>
		<path d="M197.164,98.053c0.254,0.979,0.548,1.918,0.88,2.838c1.37,3.719,3.464,6.987,6.067,9.747
			c2.173,2.29,4.698,4.227,7.457,5.695c0.392,0.196,0.764,0.392,1.155,0.587c0.137,0.059,0.254,0.118,0.391,0.176
			c5.754,2.623,12.37,3.406,18.965,1.723c12.174-3.112,20.492-13.544,21.509-25.384h0.02l3.562-19.63l1.996-10.999l0.509-2.838
			l1.585-8.807c0.509-1.625,0.822-3.288,0.92-5.03c0.098-2.055-0.098-4.149-0.626-6.263c-2.857-11.195-14.248-17.967-25.463-15.109
			c-6.713,1.723-11.821,6.498-14.228,12.467h-0.02L199.727,77.21l0.02,0.02c-2.29,4.227-3.562,9.022-3.523,13.993
			C196.302,93.474,196.576,95.764,197.164,98.053z"/>
		<path d="M250.398,381.664c-0.196,0.45-0.333,0.861-0.43,1.271c-0.137,0.568-0.196,1.097-0.177,1.547
			c0.118,2.25,1.821,3.229,1.821,3.229h16.342c0.469-1.019,0.587-1.741,0.352-2.916h0.02l-1.605-14.581h-12.957L250.398,381.664z"/>
		<path fill="#7446AF" d="M194.032,184.266h-0.078l1.096,16.655l2.818,42.606c0,0,1.859,13.095,1.116,24.759v0.04
			c-0.196,2.818-0.529,5.558-1.077,8.004c-0.959,7.457-2.25,18.417-2.622,25.756c-0.705,17.165-0.274,41.941,5.069,68.129h12.995
			l15.794-130.66c0.588-4.932,4.365-4.56,4.365-4.56c0.019,0,0.039,0,0.059,0c0.019,0,0.039,0,0.058,0c0,0,3.758-0.372,4.365,4.56
			l15.774,130.66h12.957c5.343-26.188,5.773-50.964,5.049-68.129c-0.372-7.318-1.663-18.299-2.622-25.756
			c-0.548-2.446-0.881-5.186-1.057-8.004v-0.04c-0.744-11.664,1.115-24.759,1.115-24.759l3.915-59.261h-39.554H194.032z"/>
		<path d="M198.749,384.796c-0.215,1.175-0.098,1.897,0.352,2.916h16.382c0,0,1.702-0.979,1.82-3.229
			c0.019-0.45-0.039-0.979-0.176-1.547c-0.098-0.391-0.235-0.821-0.431-1.271l-3.366-11.449h-12.996L198.749,384.796z"/>
		<path fill="#FF6666" d="M275.626,89.54c-2.388-16.264-18.339-15.755-18.417-15.755l-3.562,19.63h-0.02
			c-1.017,11.841-9.335,22.272-21.509,25.384c-6.595,1.683-13.23,0.901-18.964-1.722c-0.118-0.02-0.235-0.059-0.333-0.098
			l-0.059-0.078c-0.391-0.196-0.783-0.372-1.155-0.587c-2.779-1.468-5.284-3.406-7.476-5.696c-2.603-2.74-4.697-6.028-6.067-9.746
			c-0.333-0.92-0.646-1.859-0.9-2.838c-0.587-2.29-0.861-4.58-0.881-6.83l-13.289,33.545c-0.118,0.274-0.235,0.568-0.352,0.881
			c-0.02,0.058-0.04,0.098-0.059,0.156c-0.078,0.235-0.157,0.49-0.235,0.744c-2.388,6.694-2.427,12.213-2.309,14.444
			c0,0.059,0,0.098,0,0.156l0.039,0.431c0.019,0.333,0.039,0.548,0.039,0.548l1.996,20.902l12.565,0.02l-0.372,6.185l-0.274,15.03
			h39.535h39.554l-3.797-34.171c14.326,1.154,16.949-12.37,16.949-12.37l-5.402-24.444L275.626,89.54z"/>
		<g>
			<path fill="#00AA64" d="M280.735,146.869c1.385-1.143,2.448-2.454,3.249-3.725C282.196,143.48,280.834,145.008,280.735,146.869z"
				/>
			<path fill="#00AA64" d="M280.713,127.959c0,2.212,1.802,4.011,4.013,4.011c0.094,0,0.182-0.021,0.273-0.027l-1.706-7.72
				C281.79,124.803,280.713,126.253,280.713,127.959z"/>
			<path fill="#00AA64" d="M265.585,85.665c-2.212,0-4.012,1.8-4.012,4.012c0,2.212,1.8,4.013,4.012,4.013
				c2.211,0,4.012-1.801,4.012-4.013C269.597,87.465,267.796,85.665,265.585,85.665z"/>
			<path fill="#00AA64" d="M271.144,99.248c0,2.211,1.799,4.012,4.012,4.012c1.287,0,2.423-0.621,3.157-1.566l-1.326-5.995
				c-0.551-0.286-1.168-0.463-1.831-0.463C272.943,95.235,271.144,97.036,271.144,99.248z"/>
			<path fill="#00AA64" d="M256.015,103.26c2.211,0,4.012-1.801,4.012-4.012c0-2.212-1.801-4.012-4.012-4.012
				c-1.101,0-2.099,0.447-2.825,1.168c-0.256,1.324-0.598,2.623-1.032,3.888C252.622,101.995,254.167,103.26,256.015,103.26z"/>
			<path fill="#00AA64" d="M274.042,83.961c-0.778-1.738-1.754-3.18-2.843-4.375c-0.024,0.178-0.055,0.355-0.055,0.54
				C271.144,81.949,272.374,83.475,274.042,83.961z"/>
			<path fill="#00AA64" d="M260.027,80.126c0-1.952-1.405-3.58-3.255-3.936l-1.43,7.879c0.22,0.038,0.442,0.068,0.673,0.068
				C258.226,84.138,260.027,82.337,260.027,80.126z"/>
			<path fill="#00AA64" d="M246.445,143.068c-2.213,0-4.012,1.801-4.012,4.012c0,2.213,1.799,4.012,4.012,4.012
				c2.211,0,4.012-1.799,4.012-4.012C250.457,144.869,248.656,143.068,246.445,143.068z"/>
			<path fill="#00AA64" d="M265.585,143.068c-2.212,0-4.012,1.801-4.012,4.012c0,2.213,1.8,4.012,4.012,4.012
				c2.211,0,4.012-1.799,4.012-4.012C269.597,144.869,267.796,143.068,265.585,143.068z"/>
			<path fill="#00AA64" d="M246.445,123.947c-2.213,0-4.012,1.8-4.012,4.012c0,2.212,1.799,4.011,4.012,4.011
				c2.211,0,4.012-1.799,4.012-4.011C250.457,125.747,248.656,123.947,246.445,123.947z"/>
			<path fill="#00AA64" d="M265.585,123.947c-2.212,0-4.012,1.8-4.012,4.012c0,2.212,1.8,4.011,4.012,4.011
				c2.211,0,4.012-1.799,4.012-4.011C269.597,125.747,267.796,123.947,265.585,123.947z"/>
			<path fill="#00AA64" d="M265.585,104.806c-2.212,0-4.012,1.8-4.012,4.012c0,2.211,1.8,4.012,4.012,4.012
				c2.211,0,4.012-1.801,4.012-4.012C269.597,106.606,267.796,104.806,265.585,104.806z"/>
			<path fill="#00AA64" d="M275.156,133.517c-2.213,0-4.012,1.801-4.012,4.012c0,2.213,1.799,4.014,4.012,4.014
				c2.212,0,4.012-1.801,4.012-4.014C279.167,135.318,277.368,133.517,275.156,133.517z"/>
			<path fill="#00AA64" d="M256.015,133.517c-2.211,0-4.013,1.801-4.013,4.012c0,2.213,1.802,4.014,4.013,4.014
				s4.012-1.801,4.012-4.014C260.027,135.318,258.226,133.517,256.015,133.517z"/>
			<path fill="#00AA64" d="M275.156,114.376c-2.213,0-4.012,1.801-4.012,4.012c0,2.212,1.799,4.012,4.012,4.012
				c2.212,0,4.012-1.8,4.012-4.012C279.167,116.177,277.368,114.376,275.156,114.376z"/>
			<path fill="#00AA64" d="M256.015,114.376c-2.211,0-4.013,1.801-4.013,4.012c0,2.212,1.802,4.012,4.013,4.012
				s4.012-1.8,4.012-4.012C260.027,116.177,258.226,114.376,256.015,114.376z"/>
			<path fill="#00AA64" d="M246.445,162.208c-2.213,0-4.012,1.801-4.012,4.012c0,2.213,1.799,4.012,4.012,4.012
				c2.211,0,4.012-1.799,4.012-4.012C250.457,164.009,248.656,162.208,246.445,162.208z"/>
			<path fill="#00AA64" d="M265.585,162.208c-2.212,0-4.012,1.801-4.012,4.012c0,2.213,1.8,4.012,4.012,4.012
				c2.211,0,4.012-1.799,4.012-4.012C269.597,164.009,267.796,162.208,265.585,162.208z"/>
			<path fill="#00AA64" d="M272.514,178.788l-0.594-5.347c-0.482,0.662-0.776,1.471-0.776,2.352
				C271.144,176.988,271.68,178.052,272.514,178.788z"/>
			<path fill="#00AA64" d="M256.015,171.779c-2.211,0-4.013,1.801-4.013,4.014c0,2.211,1.802,4.012,4.013,4.012
				s4.012-1.801,4.012-4.012C260.027,173.58,258.226,171.779,256.015,171.779z"/>
			<path fill="#00AA64" d="M256.015,152.638c-2.211,0-4.013,1.801-4.013,4.012s1.802,4.014,4.013,4.014s4.012-1.803,4.012-4.014
				S258.226,152.638,256.015,152.638z"/>
			<path fill="#00AA64" d="M265.585,181.349c-1.822,0-3.347,1.23-3.834,2.896h7.668C268.932,182.58,267.407,181.349,265.585,181.349
				z"/>
			<path fill="#00AA64" d="M208.182,143.068c-2.211,0-4.012,1.801-4.012,4.012c0,2.213,1.801,4.012,4.012,4.012
				c2.212,0,4.013-1.799,4.013-4.012C212.194,144.869,210.394,143.068,208.182,143.068z"/>
			<path fill="#00AA64" d="M227.323,143.068c-2.211,0-4.012,1.801-4.012,4.012c0,2.213,1.801,4.012,4.012,4.012
				c2.212,0,4.012-1.799,4.012-4.012C231.334,144.869,229.535,143.068,227.323,143.068z"/>
			<path fill="#00AA64" d="M227.323,123.947c-2.211,0-4.012,1.8-4.012,4.012c0,2.212,1.801,4.011,4.012,4.011
				c2.212,0,4.012-1.799,4.012-4.011C231.334,125.747,229.535,123.947,227.323,123.947z"/>
			<path fill="#00AA64" d="M250.457,108.818c0-1.042-0.409-1.984-1.063-2.698c-1.393,2.246-3.094,4.297-5.064,6.093
				c0.616,0.385,1.338,0.618,2.116,0.618C248.656,112.83,250.457,111.029,250.457,108.818z"/>
			<path fill="#00AA64" d="M236.874,133.517c-2.211,0-4.012,1.801-4.012,4.012c0,2.213,1.801,4.014,4.012,4.014
				c2.212,0,4.013-1.801,4.013-4.014C240.906,135.318,239.105,133.517,236.874,133.517z"/>
			<path fill="#00AA64" d="M217.752,133.517c-2.212,0-4.012,1.801-4.012,4.012c0,2.213,1.8,4.014,4.012,4.014
				c2.211,0,4.012-1.801,4.012-4.014C221.765,135.318,219.963,133.517,217.752,133.517z"/>
			<path fill="#00AA64" d="M236.874,122.4c2.212,0,4.013-1.8,4.013-4.012c0.01-1.084-0.423-2.066-1.124-2.789
				c-2.108,1.262-4.411,2.268-6.882,2.972C232.978,120.697,234.725,122.4,236.874,122.4z"/>
			<path fill="#00AA64" d="M217.752,122.4c1.834,0,3.371-1.247,3.846-2.932c-2.678-0.331-5.273-1.037-7.717-2.076
				c-0.083,0.32-0.14,0.65-0.14,0.996C213.741,120.6,215.541,122.4,217.752,122.4z"/>
			<path fill="#00AA64" d="M208.182,181.349c-1.821,0-3.347,1.23-3.834,2.896h7.669C211.53,182.58,210.004,181.349,208.182,181.349z
				"/>
			<path fill="#00AA64" d="M227.323,181.349c-1.822,0-3.348,1.23-3.834,2.896h7.668C230.67,182.58,229.145,181.349,227.323,181.349z
				"/>
			<path fill="#00AA64" d="M208.182,162.208c-2.211,0-4.012,1.801-4.012,4.012c0,2.213,1.801,4.012,4.012,4.012
				c2.212,0,4.013-1.799,4.013-4.012C212.194,164.009,210.394,162.208,208.182,162.208z"/>
			<path fill="#00AA64" d="M227.323,162.208c-2.211,0-4.012,1.801-4.012,4.012c0,2.213,1.801,4.012,4.012,4.012
				c2.212,0,4.012-1.799,4.012-4.012C231.334,164.009,229.535,162.208,227.323,162.208z"/>
			<path fill="#00AA64" d="M236.874,171.779c-2.211,0-4.012,1.801-4.012,4.014c0,2.211,1.801,4.012,4.012,4.012
				c2.212,0,4.013-1.801,4.013-4.012C240.906,173.58,239.105,171.779,236.874,171.779z"/>
			<path fill="#00AA64" d="M217.752,171.779c-2.212,0-4.012,1.801-4.012,4.014c0,2.211,1.8,4.012,4.012,4.012
				c2.211,0,4.012-1.801,4.012-4.012C221.765,173.58,219.963,171.779,217.752,171.779z"/>
			<path fill="#00AA64" d="M236.874,152.638c-2.211,0-4.012,1.801-4.012,4.012s1.801,4.014,4.012,4.014
				c2.212,0,4.013-1.803,4.013-4.014C240.906,154.439,239.105,152.638,236.874,152.638z"/>
			<path fill="#00AA64" d="M217.752,152.638c-2.212,0-4.012,1.801-4.012,4.012s1.8,4.014,4.012,4.014
				c2.211,0,4.012-1.803,4.012-4.014S219.963,152.638,217.752,152.638z"/>
			<path fill="#00AA64" d="M246.445,181.349c-1.823,0-3.348,1.23-3.835,2.896h7.669C249.792,182.58,248.266,181.349,246.445,181.349
				z"/>
			<path fill="#00AA64" d="M193.054,108.818c0-1.603-0.952-2.979-2.314-3.621l-2.938,7.417c0.393,0.129,0.804,0.216,1.239,0.216
				C191.252,112.83,193.054,111.029,193.054,108.818z"/>
			<path fill="#00AA64" d="M194.6,99.248c0,2.211,1.8,4.012,4.012,4.012c0.152,0,0.297-0.028,0.445-0.045
				c-0.361-0.762-0.697-1.54-0.993-2.343c-0.333-0.92-0.646-1.859-0.9-2.838c-0.195-0.763-0.344-1.525-0.473-2.287
				C195.451,96.431,194.6,97.735,194.6,99.248z"/>
			<path fill="#00AA64" d="M189.041,143.068c-2.211,0-4.012,1.801-4.012,4.012c0,2.213,1.801,4.012,4.012,4.012
				c2.212,0,4.013-1.799,4.013-4.012C193.054,144.869,191.252,143.068,189.041,143.068z"/>
			<path fill="#00AA64" d="M189.041,123.947c-2.211,0-4.012,1.8-4.012,4.012c0,2.212,1.801,4.011,4.012,4.011
				c2.212,0,4.013-1.799,4.013-4.011C193.054,125.747,191.252,123.947,189.041,123.947z"/>
			<path fill="#00AA64" d="M208.182,123.947c-2.211,0-4.012,1.8-4.012,4.012c0,2.212,1.801,4.011,4.012,4.011
				c2.212,0,4.013-1.799,4.013-4.011C212.194,125.747,210.394,123.947,208.182,123.947z"/>
			<path fill="#00AA64" d="M198.611,133.517c-2.212,0-4.012,1.801-4.012,4.012c0,2.213,1.8,4.014,4.012,4.014
				c2.211,0,4.012-1.801,4.012-4.014C202.624,135.318,200.823,133.517,198.611,133.517z"/>
			<path fill="#00AA64" d="M183.482,137.529c0-1.854-1.259-3.404-2.979-3.861c-0.547,3.342-0.537,5.941-0.464,7.307
				c0,0.059,0,0.098,0,0.156l0.032,0.352C181.997,141.189,183.482,139.536,183.482,137.529z"/>
			<path fill="#00AA64" d="M198.611,114.376c-2.212,0-4.012,1.801-4.012,4.012c0,2.212,1.8,4.012,4.012,4.012
				c2.211,0,4.012-1.8,4.012-4.012C202.624,116.177,200.823,114.376,198.611,114.376z"/>
			<path fill="#00AA64" d="M186.65,163.019l4.791,0.008c-0.671-0.506-1.497-0.818-2.4-0.818
				C188.142,162.208,187.32,162.517,186.65,163.019z"/>
			<path fill="#00AA64" d="M198.611,171.779c-2.212,0-4.012,1.801-4.012,4.014c0,2.211,1.8,4.012,4.012,4.012
				c2.211,0,4.012-1.801,4.012-4.012C202.624,173.58,200.823,171.779,198.611,171.779z"/>
			<path fill="#00AA64" d="M198.611,152.638c-2.212,0-4.012,1.801-4.012,4.012s1.8,4.014,4.012,4.014
				c2.211,0,4.012-1.803,4.012-4.014S200.823,152.638,198.611,152.638z"/>
			<path fill="#00AA64" d="M183.482,156.65c0-1.609-0.95-2.992-2.324-3.631l0.656,6.873
				C182.82,159.162,183.482,157.985,183.482,156.65z"/>
		</g>
	</g>
	<g>
		<path d="M499.328,282.182c0-1.076,0.881-1.957,1.957-1.957h21.079c1.076,0,1.957,0.881,1.957,1.957v7.574h4.619v-7.574
			c0-3.621-2.955-6.576-6.576-6.576h-21.079c-3.62,0-6.576,2.955-6.576,6.576v7.574h4.619V282.182z"/>
		<path fill="#7446AF" d="M571.038,289.756H528.92h-4.619h-24.973h-4.619h-42.118c-7.202,0-13.093,5.891-13.093,13.094v71.476
			c0,7.202,5.891,13.093,13.093,13.093h118.428c7.202,0,13.094-5.891,13.094-13.093V302.85
			C584.132,295.646,578.241,289.756,571.038,289.756z"/>
		<path fill="#FFFFFF" d="M510.856,293.964c-3.504-19.669-1.919-44.584-1.919-44.584c0.725-5.871,1.312-11.214,1.801-16.067
			c3.738-21.842,4.13-43.566,4.149-50.495h-6.518l-76.289-0.039l-1.566,12.233l-9.022,57.891
			c-1.605,15.091,1.586,28.086,1.586,28.086l13.661,87.759v0.021h9.629h5.323h1.625c8.61-43.899-0.862-93.748-0.862-93.748
			c-2.72-9.473,0-12.996,0-12.996l13.133-27.693v-0.02l0.372-0.764c0.881-1.684,3.425-5.402,7.789-3.072
			c1.879,2.094,2.662,5.246,2.662,5.246l17.556,133.065h13.504C510.719,358.218,514.359,313.634,510.856,293.964z"/>
		<path fill="#FF6666" d="M446.368,368.747h-9.63c0,0.078-0.02,0.137-0.02,0.215l-20.296,11.392
			c-0.078,0.019-1.839,0.547-2.661,2.152c-0.234,0.471-0.411,1.018-0.411,1.663c-0.02,0.94,0.255,2.095,1.018,3.504h20.687h1.019
			h7.437c4.874,0,8.064,0.704,9.062-3.425c0-0.02,0-0.059,0-0.079l0.078-1.663l0.666-13.779h-1.625h-5.323V368.747z"/>
		<path fill="#FF6666" d="M489.758,381.154c-0.216,0.49-0.372,0.941-0.47,1.371c-0.137,0.606-0.215,1.175-0.176,1.664
			c0.116,2.445,1.977,3.502,1.977,3.502h17.712c0.509-1.096,0.626-1.879,0.372-3.17h0.02l-1.742-15.795h-13.484L489.758,381.154z"/>
		<path fill="#00AA64" d="M514.888,182.798l-0.861-9.316l-0.88-9.688l-5.657-80.146c-2.329-22.057-21.861-23.29-29.415-22.938
			h-0.021c-0.488,0.02-0.938,0.059-1.311,0.078c-0.099,0-0.216,0.02-0.333,0.039c-0.021,0-0.039,0-0.06,0
			c-0.098,0.02-0.194,0.02-0.312,0.02c-0.391,0.04-0.626,0.079-0.783,0.098l-0.156,0.02l-0.392,0.039l-6.067,0.528l-8.788,0.764
			l-7.534,0.665l-25.013,2.173v21.293l9.513,2.701c3.64,3.522,4.481,8.416,4.188,13.856l-0.744,6.616l-8.18,73.158l76.289,0.039
			c0,0,0.02-1.468,0,0H514.888z"/>
		<path fill="#FFCACA" d="M466.702,58.969c-1.663-3.679-0.02-8.024,3.66-9.688c0.255-0.118,0.509-0.215,0.764-0.294
			c1.585-0.783,2.798-2.231,3.17-4.11c0.646-3.209-1.448-6.341-4.658-6.967c-0.215-0.039-0.411-0.079-0.626-0.098h-22.468
			c-1.214,4.365-0.979,9.16,1.037,13.603c2.446,5.421,7.007,9.218,12.271,10.881l8.788-0.763
			C467.838,60.848,467.172,60.006,466.702,58.969z"/>
		<path fill="#7446AF" d="M484.141,34.955c-2.877-6.38-8.67-10.51-15.108-11.547c-3.739-0.607-7.692-0.157-11.411,1.526
			c-1.957,0.881-3.699,2.036-5.206,3.406c-2.857,2.583-4.853,5.891-5.853,9.511h22.47c0.215,0.02,0.411,0.04,0.626,0.098
			c3.21,0.646,5.304,3.758,4.658,6.967c-0.372,1.859-1.585,3.327-3.172,4.11c-0.254,0.078-0.509,0.176-0.763,0.293
			c-3.679,1.664-5.323,6.008-3.66,9.688c0.471,1.018,1.136,1.879,1.938,2.563l6.066-0.528l0.392-0.02
			c0.881-0.47,1.723-0.979,2.505-1.546C485.158,53.998,488.114,43.781,484.141,34.955z"/>
		<path fill="#FFCACA" d="M427.305,65.134v21.313l-37.597-5.656l4.012-18.104L427.305,65.134z"/>
		<path fill="#FFCACA" d="M359.901,58.108l-0.882-0.078c-3.386-1.077-7.691-4.247-7.691-4.247l-0.979-0.763
			c-1.096-0.881-2.367-1.546-3.719-1.938c-0.293-0.157-0.626-0.255-0.978-0.274h-0.138c-0.979-0.176-1.977-0.215-2.975-0.098
			l-14.307-0.509c-1.272-0.039-2.35,0.959-2.389,2.231c-0.039,1.272,0.959,2.349,2.231,2.388l6.929,0.254
			c-1.997,2.76-2.662,6.4-1.429,9.845c1.664,4.717,6.302,7.535,11.078,7.085l15.598,0.391l36.618,10.823
			c0,0,0.235,0.078,0.588,0.176l0.469,0.137c0.06,0,0.118,0.02,0.176,0.02c1.019,0.254,2.683,0.587,4.815,0.822l1.761-21.744
			L359.901,58.108z"/>
		<path fill="#004F35" d="M434.096,164.753h79.147l-0.097-0.959l-1.194-17.027h-75.84L434.096,164.753z"/>
		<path fill="#004F35" d="M440.124,110.775l-2.016,17.986h72.571l-1.272-17.986H440.124z"/>
		<path fill="#004F35" d="M427.305,86.447l9.513,2.701c1.135,1.096,1.957,2.329,2.603,3.64h68.715l-0.646-9.14
			c-0.371-3.444-1.154-6.361-2.231-8.866h-77.953V86.447z"/>
	</g>
	<g>
		<path fill="#FF6666" d="M356.319,115.061h0.02l2.271-0.47l23.778-4.814l-8.924-19.669l-17.692,6.576
			c-3.309-0.45-5.695-2.192-6.909-3.268l-0.92-0.9L336.18,80.967L320.19,65.291c-1.742-2.681-2.976-7.378-2.976-7.378l-0.196-0.861
			l-0.058-0.235c-0.685-3.17-2.916-5.95-6.204-7.124c-5.03-1.8-10.589,0.803-12.389,5.852c-1.527,4.267,0.116,8.885,3.718,11.312
			l10.727,9.198l3.973,5.833l16.087,23.545c0.509,0.587,1.077,1.096,1.527,1.663c2.191,2.701,4.501,4.561,6.752,5.872
			C349.019,117.527,356.319,115.061,356.319,115.061z"/>
		<path d="M290.011,67.208c0,2.329,1.898,4.208,4.208,4.208h11.821c2.309,0,4.208-1.898,4.208-4.208v-28.75
			c0-2.31-1.899-4.208-4.208-4.208h-11.821c-2.31,0-4.208,1.898-4.208,4.208V67.208z"/>
		<path fill="#FFFFFF" d="M310.267,39.828h-20.256V65.76h20.256V39.828z"/>
		<path fill="#34E0A1" d="M295.217,56.268c-1.154-1.213-1.859-2.857-1.859-4.658c0-3.738,3.033-6.792,6.791-6.792
			c3.738,0,6.792,3.034,6.792,6.792c0,1.8-0.705,3.444-1.859,4.658l-0.021,0.02c-0.234,0.235-0.47,0.47-0.744,0.666l-4.168,3.797
			l-4.188-3.797C295.706,56.757,295.452,56.522,295.217,56.268z"/>
		<path fill="#FFFFFF" d="M297.525,51.61c0,1.448,1.176,2.623,2.623,2.623c1.449,0,2.623-1.174,2.623-2.623
			c0-1.449-1.174-2.623-2.623-2.623C298.701,48.987,297.525,50.162,297.525,51.61z"/>
		<path fill="#FF6666" d="M382.447,51.395c0-3.327,2.563-6.067,5.832-6.341c1.331-0.529,2.446-1.566,2.995-3.014
			c1.017-2.72-0.372-5.754-3.094-6.752c-0.176-0.078-0.352-0.117-0.527-0.176c0,0-10.804-2.643-13.504-11.547
			c-6.049,3.816-9.631,10.921-8.612,18.476c1.409,10.294,10.902,17.517,21.196,16.107c0.685-0.098,1.369-0.235,2.016-0.392
			C385.265,57.716,382.447,54.878,382.447,51.395z"/>
		<path d="M426.757,15.755c-0.548-9.218-8.455-16.264-17.692-15.716c-9.219,0.528-16.265,8.455-15.717,17.673
			c0.118,2.035,0.607,3.973,1.37,5.754c-1.213-0.783-2.523-1.448-3.953-1.957c-5.773-2.055-11.88-1.135-16.655,1.996
			c0,0.02,0.02,0.039,0.02,0.059c2.701,8.905,13.504,11.547,13.504,11.547c0.177,0.039,0.354,0.098,0.529,0.176
			c2.72,1.018,4.11,4.032,3.092,6.752c-0.548,1.448-1.663,2.486-2.994,3.014c-3.269,0.274-5.833,2.994-5.833,6.341
			c0,3.503,2.819,6.321,6.302,6.36c1.548-0.391,3.015-0.959,4.385-1.703c2.563-1.39,4.756-3.347,6.399-5.676l1.899-2.838
			c0.293-0.606,0.566-1.233,0.802-1.879c0.803-2.25,1.135-4.541,1.077-6.791c-0.059-2.74-0.725-5.402-1.899-7.809
			c2.8,1.683,6.107,2.583,9.61,2.368C420.259,32.9,427.285,24.973,426.757,15.755z"/>
		<path fill="#FF6666" d="M362.151,285.607l6.146-46.561l-32.469,0.02l-0.529,46.502l-0.685,58.4h19.846L362.151,285.607z"/>
		<path fill="#FF6666" d="M414.72,289.835l2.819-37.167l1.057,0.587c-0.079-8.787-0.451-14.208-0.451-14.208h-24.679h-7.984
			l2.837,50.768l0.372,0.705c-0.216-0.234-0.353-0.47-0.372-0.705l1.057,18.73l1.977,35.424h19.259L414.72,289.835z"/>
		<path d="M350.213,376.125C350.291,376.479,350.271,376.32,350.213,376.125C350.232,376.145,350.232,376.125,350.213,376.125
			l4.247-32.156h-19.846l-0.177,15.364c-0.116,9.414-4.735,11.528-5.715,11.88l-1.135,0.411l-11.586,4.735l-15.423,4.111
			c-0.097,0.02-2.015,0.547-2.974,2.074h52.078L350.213,376.125z"/>
		<path d="M414.407,380.568c0,0-0.078-0.196-0.156-0.45c-0.196-0.666-0.45-1.448-0.744-2.388l-0.02,0.02l0.45,1.468
			c-0.137-0.411-0.294-0.901-0.45-1.468c-0.098-0.333-0.195-0.705-0.313-1.096c0.021,0.195-0.117,0.371-0.332,0.566l0.332-0.566
			c-4.402-14.209-2.779-29.906-2.779-29.906l0.216-2.798h-19.259l1.076,19.297l0.49,8.729v0.215l0.254,4.463l0.215,0.41
			c-0.137-0.137-0.215-0.273-0.215-0.41l0.06,1.096l0.273,4.795h21.587C414.916,381.958,414.681,381.292,414.407,380.568z"/>
		<path fill="#FFFFFF" d="M298.523,388.279l47.109,0.078c3.053-0.02,3.875-3.424,3.875-3.424l0.196-2.369h-52.08
			C296.861,383.758,296.725,385.578,298.523,388.279z"/>
		<path fill="#FFFFFF" d="M396.734,388.357h18.711c0.411-1.369,0.508-2.936-0.354-5.793h-21.587l0.333,5.793H396.734z"/>
		<path fill="#FFFFFF" d="M350.35,103.533c-8.181-7.006-3.504-14.953-3.504-14.953l6.479-17.986
			c3.17-12.095,17.438-13.21,21.293-13.289h1.997h1.996h1.996h16.225c18.456,0,18.456,19.983,18.456,19.983
			c-0.021,0.372,1.194,15.5,1.213,15.892l2.858,67.913c0.019,0.059,0-0.059,0,0c0,2.486-16.304,17.536-38.732,17.536
			c-0.666,0-1.331,0-1.996,0c-0.666,0-1.331,0-1.997,0c-22.429,0-34.484,1.449-34.484-17.536
			C342.11,161.093,358.511,110.54,350.35,103.533z"/>
		<path fill="#004F35" d="M300.716,248.676l41.395-87.583h77.229l10.334,115.12c0,0,0.686,7.046-4.462,9.335
			c-13.661,6.106-28.73,9.649-44.604,9.962c-0.02,0-0.039,0-0.059,0s-0.04,0-0.059,0c-0.157,0-0.294-0.019-0.432-0.019
			c-0.155,0-0.293,0.019-0.43,0.019c-0.02,0-0.039,0-0.059,0c-0.021,0-0.039,0-0.06,0c-30.668-0.605-58.303-13.719-78.247-34.543
			C295.646,255.173,300.716,248.676,300.716,248.676z"/>
		<path fill="#FFCACA" d="M387.927,47.383c0,1.292-1.057,2.349-2.349,2.349c-1.291,0-2.348-1.057-2.348-2.349
			c0-1.292,1.057-2.349,2.348-2.349C386.87,45.034,387.927,46.091,387.927,47.383z"/>
		<path fill="#34E0A1" d="M400.296,224.074c0-16.635-13.485-30.101-30.101-30.101c-16.637,0-30.102,13.485-30.102,30.101
			c0,0.783,0.039,1.566,0.099,2.328c-0.06,0.568-0.099,1.137-0.099,1.724v11.351v9.375v11.352c0,8.475,6.93,15.402,15.403,15.402
			h29.416c8.474,0,15.403-6.928,15.403-15.402v-11.352v-9.375v-11.351c0-0.567-0.039-1.155-0.099-1.724
			C400.257,225.641,400.296,224.857,400.296,224.074z"/>
		<path fill="#00AA64" d="M393.407,260.223c0,3.25-2.662,5.91-5.911,5.91h-34.445c-3.249,0-5.911-2.66-5.911-5.91v-7.379
			c0-3.248,2.662-5.91,5.911-5.91h34.445c3.249,0,5.911,2.662,5.911,5.91V260.223z"/>
		<path fill="#FF6666" d="M378.494,191.39c-0.021-0.039-0.04-0.098-0.06-0.137c-0.038-0.079-0.077-0.137-0.098-0.216
			c-0.02-0.019-0.02-0.039-0.039-0.058c-2.662-4.11-1.918-9.081-1.918-9.081l15.99-84.217h-25.071l-4.384,76.368
			c-0.314,5.539-1.723,17.576-2.153,21.118c-0.02,0.138-0.039,0.254-0.039,0.392c-0.059,0.392-0.079,0.627-0.079,0.627
			s0.021,0,0.039,0c-0.019,0.332-0.058,0.646-0.039,0.978c0.274,5.03,4.698,8.534,9.846,7.81c5.146-0.705,9.101-5.383,8.827-10.413
			C379.257,193.406,378.944,192.349,378.494,191.39z"/>
	</g>
</g>
</svg>
